SubSource-HROTdd_VROTn_SLENx_SANGn.ufo
<glyph name="dollar" format="2">
  <advance width="500"/>
  <unicode hex="0024"/>
  <outline>
    <contour>
      <point x="307" y="571" type="curve" smooth="yes"/>
      <point x="303" y="539"/>
      <point x="296" y="532"/>
      <point x="318" y="527" type="curve" smooth="yes"/>
      <point x="500" y="485"/>
      <point x="343" y="344"/>
      <point x="201" y="368" type="curve" smooth="yes"/>
      <point x="186" y="370"/>
      <point x="170" y="372"/>
      <point x="153" y="372" type="curve" smooth="yes"/>
      <point x="115" y="372"/>
      <point x="26" y="359"/>
      <point x="26" y="329" type="curve" smooth="yes"/>
      <point x="26" y="310"/>
      <point x="121" y="283"/>
      <point x="150" y="275" type="curve" smooth="yes"/>
      <point x="268" y="242"/>
      <point x="346" y="211"/>
      <point x="346" y="131" type="curve" smooth="yes"/>
      <point x="346" y="40"/>
      <point x="236" y="-4"/>
      <point x="119" y="-4" type="curve" smooth="yes"/>
      <point x="99" y="-4"/>
      <point x="80" y="-2"/>
      <point x="63" y="0" type="curve" smooth="yes"/>
      <point x="-78" y="26"/>
      <point x="-5" y="197"/>
      <point x="178" y="160" type="curve" smooth="yes"/>
      <point x="254" y="144"/>
      <point x="266" y="114"/>
      <point x="255" y="16" type="curve" smooth="yes"/>
      <point x="247" y="-51"/>
      <point x="158" y="-41"/>
      <point x="165" y="26" type="curve" smooth="yes"/>
      <point x="168" y="47"/>
      <point x="176" y="69"/>
      <point x="160" y="72" type="curve" smooth="yes"/>
      <point x="152" y="74"/>
      <point x="71" y="90"/>
      <point x="75" y="90" type="curve"/>
      <point x="88" y="88"/>
      <point x="103" y="86"/>
      <point x="119" y="86" type="curve" smooth="yes"/>
      <point x="159" y="86"/>
      <point x="256" y="100"/>
      <point x="256" y="131" type="curve" smooth="yes"/>
      <point x="256" y="153"/>
      <point x="157" y="180"/>
      <point x="126" y="189" type="curve" smooth="yes"/>
      <point x="10" y="221"/>
      <point x="-64" y="253"/>
      <point x="-64" y="329" type="curve" smooth="yes"/>
      <point x="-64" y="418"/>
      <point x="40" y="462"/>
      <point x="153" y="462" type="curve" smooth="yes"/>
      <point x="176" y="462"/>
      <point x="198" y="460"/>
      <point x="215" y="456" type="curve" smooth="yes"/>
      <point x="222" y="455"/>
      <point x="306" y="437"/>
      <point x="298" y="439" type="curve" smooth="yes"/>
      <point x="226" y="456"/>
      <point x="206" y="475"/>
      <point x="217" y="581" type="curve" smooth="yes"/>
      <point x="224" y="648"/>
      <point x="314" y="638"/>
    </contour>
  </outline>
</glyph>
<glyph name="percent" format="2">
  <advance width="1023"/>
  <unicode hex="0025"/>
  <outline>
    <contour>
      <point x="617" y="-14" type="curve" smooth="yes"/>
      <point x="532" y="-2"/>
      <point x="483" y="53"/>
      <point x="483" y="120" type="curve" smooth="yes"/>
      <point x="483" y="204"/>
      <point x="553" y="272"/>
      <point x="664" y="272" type="curve" smooth="yes"/>
      <point x="775" y="272"/>
      <point x="847" y="204"/>
      <point x="847" y="120" type="curve" smooth="yes"/>
      <point x="847" y="50"/>
      <point x="804" y="-1"/>
      <point x="743" y="-13" type="curve" smooth="yes"/>
      <point x="676" y="-26"/>
      <point x="659" y="62"/>
      <point x="725" y="75" type="curve" smooth="yes"/>
      <point x="746" y="79"/>
      <point x="757" y="96"/>
      <point x="757" y="120" type="curve" smooth="yes"/>
      <point x="757" y="159"/>
      <point x="716" y="182"/>
      <point x="664" y="182" type="curve" smooth="yes"/>
      <point x="612" y="182"/>
      <point x="573" y="159"/>
      <point x="573" y="120" type="curve" smooth="yes"/>
      <point x="573" y="94"/>
      <point x="597" y="80"/>
      <point x="629" y="76" type="curve" smooth="yes"/>
      <point x="696" y="67"/>
      <point x="684" y="-23"/>
    </contour>
    <contour>
      <point x="649" y="423" type="curve" smooth="yes"/>
      <point x="596" y="370"/>
      <point x="543" y="321"/>
      <point x="490" y="267" type="curve" smooth="yes"/>
      <point x="423" y="200"/>
      <point x="353" y="130"/>
      <point x="309" y="86" type="curve" smooth="yes"/>
      <point x="285" y="61"/>
      <point x="251" y="27"/>
      <point x="244" y="15" type="curve" smooth="yes"/>
      <point x="210" y="-43"/>
      <point x="132" y="3"/>
      <point x="166" y="61" type="curve" smooth="yes"/>
      <point x="179" y="82"/>
      <point x="204" y="108"/>
      <point x="245" y="148" type="curve" smooth="yes"/>
      <point x="289" y="194"/>
      <point x="359" y="264"/>
      <point x="426" y="331" type="curve" smooth="yes"/>
      <point x="479" y="385"/>
      <point x="533" y="434"/>
      <point x="585" y="487" type="curve" smooth="yes"/>
      <point x="633" y="535"/>
      <point x="697" y="471"/>
    </contour>
    <contour>
      <point x="209" y="487" type="curve" smooth="yes"/>
      <point x="265" y="457"/>
      <point x="301" y="401"/>
      <point x="301" y="337" type="curve" smooth="yes"/>
      <point x="301" y="253"/>
      <point x="229" y="185"/>
      <point x="118" y="185" type="curve" smooth="yes"/>
      <point x="7" y="185"/>
      <point x="-63" y="253"/>
      <point x="-63" y="337" type="curve" smooth="yes"/>
      <point x="-63" y="401"/>
      <point x="-19" y="459"/>
      <point x="61" y="489" type="curve" smooth="yes"/>
      <point x="125" y="513"/>
      <point x="156" y="428"/>
      <point x="93" y="405" type="curve" smooth="yes"/>
      <point x="56" y="391"/>
      <point x="27" y="366"/>
      <point x="27" y="337" type="curve" smooth="yes"/>
      <point x="27" y="298"/>
      <point x="66" y="275"/>
      <point x="118" y="275" type="curve" smooth="yes"/>
      <point x="170" y="275"/>
      <point x="211" y="298"/>
      <point x="211" y="337" type="curve" smooth="yes"/>
      <point x="211" y="367"/>
      <point x="193" y="393"/>
      <point x="167" y="407" type="curve" smooth="yes"/>
      <point x="107" y="439"/>
      <point x="150" y="519"/>
    </contour>
  </outline>
</glyph>
<glyph name="ampersand" format="2">
  <advance width="634"/>
  <unicode hex="0026"/>
  <outline>
    <contour>
      <point x="576" y="274" type="curve" smooth="yes"/>
      <point x="378" y="274" type="line" smooth="yes"/>
      <point x="255" y="274"/>
      <point x="153" y="253"/>
      <point x="153" y="201" type="curve" smooth="yes"/>
      <point x="153" y="162"/>
      <point x="222" y="142"/>
      <point x="288" y="142" type="curve" smooth="yes"/>
      <point x="361" y="142"/>
      <point x="426" y="165"/>
      <point x="426" y="213" type="curve" smooth="yes"/>
      <point x="425" y="406" type="line" smooth="yes"/>
      <point x="425" y="473"/>
      <point x="515" y="474"/>
      <point x="515" y="406" type="curve" smooth="yes"/>
      <point x="516" y="213" type="line" smooth="yes"/>
      <point x="516" y="119"/>
      <point x="430" y="52"/>
      <point x="288" y="52" type="curve" smooth="yes"/>
      <point x="145" y="52"/>
      <point x="63" y="117"/>
      <point x="63" y="201" type="curve" smooth="yes"/>
      <point x="63" y="298"/>
      <point x="151" y="364"/>
      <point x="378" y="364" type="curve" smooth="yes"/>
      <point x="576" y="364" type="line" smooth="yes"/>
      <point x="644" y="364"/>
      <point x="644" y="274"/>
    </contour>
    <contour>
      <point x="418" y="469" type="curve" smooth="yes"/>
      <point x="332" y="492"/>
      <point x="170" y="493"/>
      <point x="170" y="429" type="curve" smooth="yes"/>
      <point x="170" y="388"/>
      <point x="266" y="364"/>
      <point x="378" y="364" type="curve" smooth="yes"/>
      <point x="446" y="364"/>
      <point x="446" y="274"/>
      <point x="378" y="274" type="curve" smooth="yes"/>
      <point x="157" y="274"/>
      <point x="80" y="347"/>
      <point x="80" y="429" type="curve" smooth="yes"/>
      <point x="80" y="560"/>
      <point x="264" y="603"/>
      <point x="442" y="555" type="curve" smooth="yes"/>
      <point x="507" y="538"/>
      <point x="484" y="451"/>
    </contour>
  </outline>
</glyph>
<glyph name="parenleft" format="2">
  <advance width="452"/>
  <unicode hex="0028"/>
  <outline>
    <contour>
      <point x="304" y="-129" type="curve" smooth="yes"/>
      <point x="222" y="-134"/>
      <point x="154" y="-118"/>
      <point x="105" y="-85" type="curve" smooth="yes"/>
      <point x="15" y="-25"/>
      <point x="-51" y="73"/>
      <point x="-51" y="207" type="curve" smooth="yes"/>
      <point x="-51" y="339"/>
      <point x="15" y="438"/>
      <point x="105" y="498" type="curve" smooth="yes"/>
      <point x="150" y="528"/>
      <point x="212" y="557"/>
      <point x="286" y="583" type="curve" smooth="yes"/>
      <point x="350" y="604"/>
      <point x="379" y="519"/>
      <point x="316" y="497" type="curve" smooth="yes"/>
      <point x="250" y="475"/>
      <point x="194" y="450"/>
      <point x="155" y="424" type="curve" smooth="yes"/>
      <point x="87" y="378"/>
      <point x="39" y="307"/>
      <point x="39" y="207" type="curve" smooth="yes"/>
      <point x="39" y="107"/>
      <point x="87" y="35"/>
      <point x="155" y="-11" type="curve" smooth="yes"/>
      <point x="190" y="-34"/>
      <point x="241" y="-42"/>
      <point x="298" y="-39" type="curve" smooth="yes"/>
      <point x="366" y="-35"/>
      <point x="371" y="-125"/>
    </contour>
  </outline>
</glyph>
<glyph name="parenright" format="2">
  <advance width="452"/>
  <unicode hex="0029"/>
  <outline>
    <contour>
      <point x="-51" y="563" type="curve" smooth="yes"/>
      <point x="112" y="531"/>
      <point x="262" y="410"/>
      <point x="262" y="207" type="curve" smooth="yes"/>
      <point x="262" y="4"/>
      <point x="112" y="-116"/>
      <point x="-51" y="-149" type="curve" smooth="yes"/>
      <point x="-117" y="-162"/>
      <point x="-135" y="-74"/>
      <point x="-69" y="-61" type="curve" smooth="yes"/>
      <point x="56" y="-36"/>
      <point x="172" y="52"/>
      <point x="172" y="207" type="curve" smooth="yes"/>
      <point x="172" y="362"/>
      <point x="56" y="451"/>
      <point x="-69" y="475" type="curve" smooth="yes"/>
      <point x="-135" y="488"/>
      <point x="-118" y="576"/>
    </contour>
  </outline>
</glyph>
<glyph name="plus" format="2">
  <advance width="540"/>
  <unicode hex="002B"/>
  <outline>
    <contour>
      <point x="183" y="378" type="curve" smooth="yes"/>
      <point x="243" y="313"/>
      <point x="252" y="206"/>
      <point x="192" y="55" type="curve" smooth="yes"/>
      <point x="167" y="-8"/>
      <point x="83" y="25"/>
      <point x="108" y="87" type="curve" smooth="yes"/>
      <point x="148" y="188"/>
      <point x="156" y="274"/>
      <point x="117" y="316" type="curve" smooth="yes"/>
      <point x="71" y="366"/>
      <point x="137" y="427"/>
    </contour>
    <contour>
      <point x="349" y="165" type="curve" smooth="yes"/>
      <point x="157" y="125"/>
      <point x="23" y="129"/>
      <point x="-59" y="168" type="curve" smooth="yes"/>
      <point x="-120" y="198"/>
      <point x="-81" y="279"/>
      <point x="-21" y="250" type="curve" smooth="yes"/>
      <point x="47" y="217"/>
      <point x="174" y="221"/>
      <point x="331" y="253" type="curve" smooth="yes"/>
      <point x="397" y="267"/>
      <point x="415" y="179"/>
    </contour>
  </outline>
</glyph>
<glyph name="period" format="2">
  <advance width="260"/>
  <unicode hex="002E"/>
  <outline>
    <contour>
      <point x="6" y="-29" type="curve" smooth="yes"/>
      <point x="-26" y="-23"/>
      <point x="-56" y="18"/>
      <point x="-24" y="75" type="curve" smooth="yes"/>
      <point x="8" y="134"/>
      <point x="87" y="90"/>
      <point x="54" y="31" type="curve" smooth="yes"/>
      <point x="54" y="30"/>
      <point x="23" y="59"/>
      <point x="24" y="59" type="curve" smooth="yes"/>
      <point x="90" y="46"/>
      <point x="72" y="-42"/>
    </contour>
  </outline>
</glyph>
<glyph name="one" format="2">
  <advance width="344"/>
  <unicode hex="0031"/>
  <outline>
    <contour>
      <point x="41" y="521" type="curve" smooth="yes"/>
      <point x="90" y="525"/>
      <point x="130" y="518"/>
      <point x="148" y="486" type="curve" smooth="yes"/>
      <point x="165" y="455"/>
      <point x="144" y="370"/>
      <point x="144" y="321" type="curve" smooth="yes"/>
      <point x="144" y="215"/>
      <point x="144" y="169"/>
      <point x="144" y="105" type="curve" smooth="yes"/>
      <point x="144" y="102"/>
      <point x="142" y="81"/>
      <point x="144" y="81" type="curve" smooth="yes"/>
      <point x="208" y="58"/>
      <point x="178" y="-27"/>
      <point x="114" y="-5" type="curve" smooth="yes"/>
      <point x="75" y="9"/>
      <point x="54" y="45"/>
      <point x="54" y="105" type="curve" smooth="yes"/>
      <point x="54" y="200"/>
      <point x="54" y="250"/>
      <point x="54" y="321" type="curve" smooth="yes"/>
      <point x="54" y="475"/>
      <point x="75" y="432"/>
      <point x="70" y="442" type="curve" smooth="yes"/>
      <point x="69" y="443"/>
      <point x="51" y="431"/>
      <point x="49" y="431" type="curve" smooth="yes"/>
      <point x="-18" y="425"/>
      <point x="-26" y="515"/>
    </contour>
  </outline>
</glyph>
<glyph name="two" format="2">
  <advance width="505"/>
  <unicode hex="0032"/>
  <outline>
    <contour>
      <point x="3" y="487" type="curve" smooth="yes"/>
      <point x="34" y="488"/>
      <point x="74" y="494"/>
      <point x="154" y="488" type="curve" smooth="yes"/>
      <point x="249" y="481"/>
      <point x="337" y="430"/>
      <point x="337" y="343" type="curve" smooth="yes"/>
      <point x="337" y="278"/>
      <point x="298" y="238"/>
      <point x="199" y="160" type="curve" smooth="yes"/>
      <point x="135" y="109"/>
      <point x="84" y="72"/>
      <point x="42" y="40" type="curve" smooth="yes"/>
      <point x="38" y="37"/>
      <point x="84" y="107"/>
      <point x="89" y="107" type="curve" smooth="yes"/>
      <point x="179" y="107"/>
      <point x="160" y="65"/>
      <point x="216" y="65" type="curve" smooth="yes"/>
      <point x="247" y="65"/>
      <point x="280" y="70"/>
      <point x="311" y="78" type="curve" smooth="yes"/>
      <point x="376" y="94"/>
      <point x="399" y="7"/>
      <point x="333" y="-10" type="curve" smooth="yes"/>
      <point x="294" y="-20"/>
      <point x="255" y="-25"/>
      <point x="216" y="-25" type="curve" smooth="yes"/>
      <point x="122" y="-25"/>
      <point x="143" y="17"/>
      <point x="89" y="17" type="curve" smooth="yes"/>
      <point x="-49" y="17"/>
      <point x="-106" y="41"/>
      <point x="-12" y="112" type="curve" smooth="yes"/>
      <point x="30" y="144"/>
      <point x="79" y="181"/>
      <point x="143" y="230" type="curve" smooth="yes"/>
      <point x="193" y="270"/>
      <point x="247" y="310"/>
      <point x="247" y="343" type="curve" smooth="yes"/>
      <point x="247" y="377"/>
      <point x="184" y="395"/>
      <point x="146" y="398" type="curve" smooth="yes"/>
      <point x="74" y="404"/>
      <point x="34" y="398"/>
      <point x="7" y="397" type="curve" smooth="yes"/>
      <point x="-61" y="395"/>
      <point x="-64" y="485"/>
    </contour>
  </outline>
</glyph>
<glyph name="three" format="2">
  <advance width="488"/>
  <unicode hex="0033"/>
  <outline>
    <contour>
      <point x="20" y="97" type="curve" smooth="yes"/>
      <point x="51" y="81"/>
      <point x="85" y="69"/>
      <point x="124" y="67" type="curve" smooth="yes"/>
      <point x="189" y="62"/>
      <point x="235" y="86"/>
      <point x="255" y="148" type="curve" smooth="yes"/>
      <point x="274" y="207"/>
      <point x="256" y="248"/>
      <point x="223" y="254" type="curve" smooth="yes"/>
      <point x="193" y="259"/>
      <point x="185" y="259"/>
      <point x="164" y="260" type="curve" smooth="yes"/>
      <point x="153" y="260"/>
      <point x="-87" y="199"/>
      <point x="56" y="320" type="curve" smooth="yes"/>
      <point x="69" y="332"/>
      <point x="83" y="343"/>
      <point x="104" y="359" type="curve" smooth="yes"/>
      <point x="123" y="374"/>
      <point x="153" y="399"/>
      <point x="209" y="441" type="curve" smooth="yes"/>
      <point x="216" y="446"/>
      <point x="275" y="446"/>
      <point x="266" y="445" type="curve" smooth="yes"/>
      <point x="149" y="426"/>
      <point x="27" y="394"/>
      <point x="-30" y="395" type="curve" smooth="yes"/>
      <point x="-97" y="396"/>
      <point x="-96" y="486"/>
      <point x="-28" y="485" type="curve" smooth="yes"/>
      <point x="19" y="484"/>
      <point x="111" y="512"/>
      <point x="252" y="533" type="curve" smooth="yes"/>
      <point x="422" y="560"/>
      <point x="405" y="477"/>
      <point x="263" y="369" type="curve" smooth="yes"/>
      <point x="207" y="327"/>
      <point x="179" y="304"/>
      <point x="160" y="289" type="curve" smooth="yes"/>
      <point x="139" y="271"/>
      <point x="127" y="262"/>
      <point x="114" y="252" type="curve" smooth="yes"/>
      <point x="109" y="247"/>
      <point x="-132" y="358"/>
      <point x="168" y="350" type="curve" smooth="yes"/>
      <point x="193" y="349"/>
      <point x="205" y="349"/>
      <point x="237" y="342" type="curve" smooth="yes"/>
      <point x="311" y="330"/>
      <point x="382" y="250"/>
      <point x="341" y="122" type="curve" smooth="yes"/>
      <point x="309" y="18"/>
      <point x="225" y="-30"/>
      <point x="118" y="-23" type="curve" smooth="yes"/>
      <point x="65" y="-19"/>
      <point x="19" y="-5"/>
      <point x="-22" y="17" type="curve" smooth="yes"/>
      <point x="-82" y="49"/>
      <point x="-40" y="128"/>
    </contour>
  </outline>
</glyph>
<glyph name="nine" format="2">
  <advance width="534"/>
  <unicode hex="0039"/>
  <outline>
    <contour>
      <point x="408" y="282" type="curve" smooth="yes"/>
      <point x="345" y="228"/>
      <point x="270" y="190"/>
      <point x="186" y="182" type="curve" smooth="yes"/>
      <point x="31" y="167"/>
      <point x="-87" y="215"/>
      <point x="-87" y="315" type="curve" smooth="yes"/>
      <point x="-87" y="411"/>
      <point x="-4" y="490"/>
      <point x="137" y="490" type="curve" smooth="yes"/>
      <point x="255" y="490"/>
      <point x="374" y="419"/>
      <point x="374" y="249" type="curve" smooth="yes"/>
      <point x="374" y="53"/>
      <point x="224" y="-35"/>
      <point x="97" y="-28" type="curve" smooth="yes"/>
      <point x="46" y="-25"/>
      <point x="7" y="1"/>
      <point x="-13" y="41" type="curve" smooth="yes"/>
      <point x="-42" y="102"/>
      <point x="39" y="141"/>
      <point x="69" y="81" type="curve" smooth="yes"/>
      <point x="75" y="68"/>
      <point x="86" y="63"/>
      <point x="103" y="62" type="curve" smooth="yes"/>
      <point x="188" y="57"/>
      <point x="284" y="115"/>
      <point x="284" y="249" type="curve" smooth="yes"/>
      <point x="284" y="361"/>
      <point x="215" y="400"/>
      <point x="137" y="400" type="curve" smooth="yes"/>
      <point x="59" y="400"/>
      <point x="3" y="368"/>
      <point x="3" y="315" type="curve" smooth="yes"/>
      <point x="3" y="274"/>
      <point x="114" y="266"/>
      <point x="178" y="272" type="curve" smooth="yes"/>
      <point x="242" y="278"/>
      <point x="301" y="308"/>
      <point x="350" y="350" type="curve" smooth="yes"/>
      <point x="401" y="394"/>
      <point x="460" y="326"/>
    </contour>
  </outline>
</glyph>
<glyph name="at" format="2">
  <advance width="956"/>
  <unicode hex="0040"/>
  <outline>
    <contour>
      <point x="555" y="291" type="curve" smooth="yes"/>
      <point x="555" y="253"/>
      <point x="555" y="207"/>
      <point x="555" y="175" type="curve" smooth="yes"/>
      <point x="555" y="84"/>
      <point x="477" y="15"/>
      <point x="362" y="15" type="curve" smooth="yes"/>
      <point x="246" y="15"/>
      <point x="168" y="87"/>
      <point x="168" y="177" type="curve" smooth="yes"/>
      <point x="168" y="265"/>
      <point x="248" y="339"/>
      <point x="385" y="360" type="curve" smooth="yes"/>
      <point x="539" y="382"/>
      <point x="655" y="348"/>
      <point x="655" y="250" type="curve" smooth="yes"/>
      <point x="655" y="230"/>
      <point x="657" y="137"/>
      <point x="667" y="133" type="curve" smooth="yes"/>
      <point x="685" y="126"/>
      <point x="702" y="175"/>
      <point x="702" y="209" type="curve" smooth="yes"/>
      <point x="702" y="325"/>
      <point x="563" y="399"/>
      <point x="380" y="399" type="curve" smooth="yes"/>
      <point x="187" y="399"/>
      <point x="37" y="306"/>
      <point x="37" y="172" type="curve" smooth="yes"/>
      <point x="37" y="36"/>
      <point x="183" y="-44"/>
      <point x="368" y="-44" type="curve" smooth="yes"/>
      <point x="422" y="-44"/>
      <point x="479" y="-36"/>
      <point x="577" y="5" type="curve" smooth="yes"/>
      <point x="639" y="31"/>
      <point x="674" y="-52"/>
      <point x="611" y="-79" type="curve" smooth="yes"/>
      <point x="499" y="-126"/>
      <point x="430" y="-134"/>
      <point x="368" y="-134" type="curve" smooth="yes"/>
      <point x="120" y="-134"/>
      <point x="-53" y="-10"/>
      <point x="-53" y="172" type="curve" smooth="yes"/>
      <point x="-53" y="350"/>
      <point x="124" y="489"/>
      <point x="380" y="489" type="curve" smooth="yes"/>
      <point x="632" y="489"/>
      <point x="792" y="368"/>
      <point x="792" y="209" type="curve" smooth="yes"/>
      <point x="792" y="79"/>
      <point x="702" y="20"/>
      <point x="631" y="51" type="curve" smooth="yes"/>
      <point x="578" y="73"/>
      <point x="565" y="134"/>
      <point x="565" y="250" type="curve" smooth="yes"/>
      <point x="565" y="281"/>
      <point x="448" y="278"/>
      <point x="399" y="270" type="curve" smooth="yes"/>
      <point x="324" y="259"/>
      <point x="258" y="225"/>
      <point x="258" y="177" type="curve" smooth="yes"/>
      <point x="258" y="132"/>
      <point x="305" y="105"/>
      <point x="362" y="105" type="curve" smooth="yes"/>
      <point x="418" y="105"/>
      <point x="465" y="130"/>
      <point x="465" y="175" type="curve" smooth="yes"/>
      <point x="465" y="223"/>
      <point x="465" y="266"/>
      <point x="465" y="291" type="curve" smooth="yes"/>
      <point x="465" y="359"/>
      <point x="555" y="359"/>
    </contour>
  </outline>
</glyph>
<glyph name="A" format="2">
  <advance width="651"/>
  <unicode hex="0041"/>
  <outline>
    <contour>
      <point x="-62" y="12" type="curve" smooth="yes"/>
      <point x="-72" y="35"/>
      <point x="-75" y="59"/>
      <point x="-57" y="101" type="curve" smooth="yes"/>
      <point x="-39" y="143"/>
      <point x="9" y="184"/>
      <point x="88" y="185" type="curve" smooth="yes"/>
      <point x="135" y="186"/>
      <point x="164" y="186"/>
      <point x="216" y="186" type="curve" smooth="yes"/>
      <point x="222" y="186"/>
      <point x="347" y="185"/>
      <point x="342" y="185" type="curve" smooth="yes"/>
      <point x="297" y="185"/>
      <point x="283" y="185"/>
      <point x="266" y="185" type="curve" smooth="yes"/>
      <point x="109" y="185"/>
      <point x="51" y="192"/>
      <point x="53" y="261" type="curve" smooth="yes"/>
      <point x="53" y="310"/>
      <point x="144" y="419"/>
      <point x="160" y="453" type="curve" smooth="yes"/>
      <point x="211" y="559"/>
      <point x="251" y="525"/>
      <point x="298" y="419" type="curve" smooth="yes"/>
      <point x="336" y="332"/>
      <point x="401" y="200"/>
      <point x="443" y="125" type="curve" smooth="yes"/>
      <point x="447" y="116"/>
      <point x="462" y="77"/>
      <point x="476" y="72" type="curve" smooth="yes"/>
      <point x="539" y="48"/>
      <point x="507" y="-36"/>
      <point x="444" y="-12" type="curve" smooth="yes"/>
      <point x="393" y="7"/>
      <point x="381" y="49"/>
      <point x="363" y="81" type="curve" smooth="yes"/>
      <point x="321" y="160"/>
      <point x="254" y="294"/>
      <point x="216" y="383" type="curve" smooth="yes"/>
      <point x="214" y="387"/>
      <point x="244" y="419"/>
      <point x="242" y="415" type="curve" smooth="yes"/>
      <point x="204" y="334"/>
      <point x="143" y="281"/>
      <point x="143" y="259" type="curve" smooth="yes"/>
      <point x="143" y="256"/>
      <point x="260" y="275"/>
      <point x="266" y="275" type="curve" smooth="yes"/>
      <point x="292" y="275"/>
      <point x="312" y="275"/>
      <point x="342" y="275" type="curve" smooth="yes"/>
      <point x="488" y="275"/>
      <point x="372" y="96"/>
      <point x="216" y="96" type="curve" smooth="yes"/>
      <point x="164" y="96"/>
      <point x="137" y="96"/>
      <point x="90" y="95" type="curve" smooth="yes"/>
      <point x="58" y="94"/>
      <point x="33" y="82"/>
      <point x="25" y="65" type="curve" smooth="yes"/>
      <point x="23" y="61"/>
      <point x="19" y="50"/>
      <point x="20" y="48" type="curve" smooth="yes"/>
      <point x="47" y="-14"/>
      <point x="-36" y="-50"/>
    </contour>
  </outline>
</glyph>
<glyph name="B" format="2">
  <advance width="540"/>
  <unicode hex="0042"/>
  <outline>
    <contour>
      <point x="175" y="88" type="curve" smooth="yes"/>
      <point x="202" y="75"/>
      <point x="218" y="66"/>
      <point x="248" y="75" type="curve" smooth="yes"/>
      <point x="271" y="82"/>
      <point x="294" y="102"/>
      <point x="294" y="125" type="curve" smooth="yes"/>
      <point x="294" y="150"/>
      <point x="246" y="169"/>
      <point x="216" y="179" type="curve" smooth="yes"/>
      <point x="196" y="187"/>
      <point x="187" y="189"/>
      <point x="166" y="194" type="curve" smooth="yes"/>
      <point x="50" y="219"/>
      <point x="133" y="364"/>
      <point x="285" y="364" type="curve" smooth="yes"/>
      <point x="313" y="364"/>
      <point x="321" y="364"/>
      <point x="335" y="366" type="curve" smooth="yes"/>
      <point x="338" y="366"/>
      <point x="325" y="316"/>
      <point x="322" y="318" type="curve" smooth="yes"/>
      <point x="280" y="346"/>
      <point x="224" y="384"/>
      <point x="145" y="390" type="curve" smooth="yes"/>
      <point x="128" y="391"/>
      <point x="105" y="391"/>
      <point x="83" y="392" type="curve" smooth="yes"/>
      <point x="58" y="393"/>
      <point x="50" y="396"/>
      <point x="50" y="377" type="curve" smooth="yes"/>
      <point x="50" y="277"/>
      <point x="50" y="193"/>
      <point x="50" y="124" type="curve" smooth="yes"/>
      <point x="50" y="103"/>
      <point x="51" y="75"/>
      <point x="61" y="61" type="curve" smooth="yes"/>
      <point x="101" y="6"/>
      <point x="29" y="-47"/>
      <point x="-11" y="7" type="curve" smooth="yes"/>
      <point x="-34" y="38"/>
      <point x="-40" y="77"/>
      <point x="-40" y="124" type="curve" smooth="yes"/>
      <point x="-40" y="226"/>
      <point x="-40" y="310"/>
      <point x="-40" y="377" type="curve" smooth="yes"/>
      <point x="-40" y="445"/>
      <point x="-7" y="485"/>
      <point x="87" y="482" type="curve" smooth="yes"/>
      <point x="107" y="481"/>
      <point x="131" y="481"/>
      <point x="153" y="480" type="curve" smooth="yes"/>
      <point x="252" y="472"/>
      <point x="320" y="428"/>
      <point x="372" y="392" type="curve" smooth="yes"/>
      <point x="453" y="338"/>
      <point x="403" y="283"/>
      <point x="347" y="276" type="curve" smooth="yes"/>
      <point x="329" y="274"/>
      <point x="320" y="274"/>
      <point x="285" y="274" type="curve" smooth="yes"/>
      <point x="279" y="274"/>
      <point x="181" y="283"/>
      <point x="186" y="282" type="curve" smooth="yes"/>
      <point x="211" y="277"/>
      <point x="222" y="273"/>
      <point x="246" y="265" type="curve" smooth="yes"/>
      <point x="328" y="236"/>
      <point x="384" y="194"/>
      <point x="384" y="125" type="curve" smooth="yes"/>
      <point x="384" y="63"/>
      <point x="338" y="9"/>
      <point x="274" y="-11" type="curve" smooth="yes"/>
      <point x="220" y="-28"/>
      <point x="184" y="-17"/>
      <point x="135" y="8" type="curve" smooth="yes"/>
      <point x="75" y="38"/>
      <point x="115" y="118"/>
    </contour>
  </outline>
</glyph>
<glyph name="D" format="2">
  <advance width="660"/>
  <unicode hex="0044"/>
  <outline>
    <contour>
      <point x="20" y="2" type="curve" smooth="yes"/>
      <point x="-10" y="12"/>
      <point x="-40" y="31"/>
      <point x="-40" y="130" type="curve" smooth="yes"/>
      <point x="-40" y="217"/>
      <point x="-40" y="284"/>
      <point x="-40" y="342" type="curve" smooth="yes"/>
      <point x="-40" y="450"/>
      <point x="51" y="525"/>
      <point x="110" y="525" type="curve" smooth="yes"/>
      <point x="175" y="525"/>
      <point x="180" y="495"/>
      <point x="211" y="481" type="curve" smooth="yes"/>
      <point x="337" y="420"/>
      <point x="490" y="377"/>
      <point x="490" y="228" type="curve" smooth="yes"/>
      <point x="490" y="83"/>
      <point x="353" y="-37"/>
      <point x="179" y="-22" type="curve" smooth="yes"/>
      <point x="140" y="-18"/>
      <point x="114" y="-3"/>
      <point x="99" y="17" type="curve" smooth="yes"/>
      <point x="58" y="71"/>
      <point x="130" y="125"/>
      <point x="171" y="71" type="curve" smooth="yes"/>
      <point x="172" y="70"/>
      <point x="185" y="68"/>
      <point x="187" y="68" type="curve" smooth="yes"/>
      <point x="303" y="57"/>
      <point x="400" y="131"/>
      <point x="400" y="228" type="curve" smooth="yes"/>
      <point x="400" y="318"/>
      <point x="248" y="363"/>
      <point x="173" y="399" type="curve" smooth="yes"/>
      <point x="110" y="428"/>
      <point x="142" y="435"/>
      <point x="110" y="435" type="curve" smooth="yes"/>
      <point x="88" y="435"/>
      <point x="50" y="382"/>
      <point x="50" y="342" type="curve" smooth="yes"/>
      <point x="50" y="255"/>
      <point x="50" y="188"/>
      <point x="50" y="130" type="curve" smooth="yes"/>
      <point x="50" y="125"/>
      <point x="48" y="87"/>
      <point x="50" y="86" type="curve" smooth="yes"/>
      <point x="114" y="64"/>
      <point x="84" y="-21"/>
    </contour>
  </outline>
</glyph>
<glyph name="I" format="2">
  <advance width="270"/>
  <unicode hex="0049"/>
  <outline>
    <contour>
      <point x="-1" y="6" type="curve" smooth="yes"/>
      <point x="-22" y="34"/>
      <point x="-30" y="69"/>
      <point x="-30" y="112" type="curve" smooth="yes"/>
      <point x="-30" y="212"/>
      <point x="-30" y="282"/>
      <point x="-30" y="349" type="curve" smooth="yes"/>
      <point x="-30" y="382"/>
      <point x="-25" y="427"/>
      <point x="-7" y="474" type="curve" smooth="yes"/>
      <point x="18" y="537"/>
      <point x="101" y="505"/>
      <point x="77" y="442" type="curve" smooth="yes"/>
      <point x="63" y="407"/>
      <point x="60" y="374"/>
      <point x="60" y="349" type="curve" smooth="yes"/>
      <point x="60" y="249"/>
      <point x="60" y="179"/>
      <point x="60" y="112" type="curve" smooth="yes"/>
      <point x="60" y="94"/>
      <point x="62" y="72"/>
      <point x="71" y="60" type="curve" smooth="yes"/>
      <point x="111" y="6"/>
      <point x="39" y="-48"/>
    </contour>
  </outline>
</glyph>
<glyph name="K" format="2">
  <advance width="591"/>
  <unicode hex="004B"/>
  <outline>
    <contour>
      <point x="66" y="437" type="curve" smooth="yes"/>
      <point x="49" y="399"/>
      <point x="50" y="374"/>
      <point x="50" y="348" type="curve" smooth="yes"/>
      <point x="50" y="243"/>
      <point x="50" y="161"/>
      <point x="50" y="92" type="curve" smooth="yes"/>
      <point x="50" y="90"/>
      <point x="46" y="76"/>
      <point x="47" y="75" type="curve" smooth="yes"/>
      <point x="110" y="49"/>
      <point x="75" y="-34"/>
      <point x="13" y="-7" type="curve" smooth="yes"/>
      <point x="-23" y="8"/>
      <point x="-40" y="45"/>
      <point x="-40" y="92" type="curve" smooth="yes"/>
      <point x="-40" y="196"/>
      <point x="-40" y="278"/>
      <point x="-40" y="348" type="curve" smooth="yes"/>
      <point x="-40" y="384"/>
      <point x="-39" y="421"/>
      <point x="-16" y="473" type="curve" smooth="yes"/>
      <point x="11" y="535"/>
      <point x="94" y="498"/>
    </contour>
    <contour>
      <point x="432" y="418" type="curve" smooth="yes"/>
      <point x="370" y="376"/>
      <point x="327" y="347"/>
      <point x="288" y="324" type="curve" smooth="yes"/>
      <point x="247" y="300"/>
      <point x="190" y="266"/>
      <point x="178" y="261" type="curve" smooth="yes"/>
      <point x="174" y="259"/>
      <point x="218" y="245"/>
      <point x="220" y="240" type="curve" smooth="yes"/>
      <point x="245" y="193"/>
      <point x="341" y="101"/>
      <point x="416" y="55" type="curve" smooth="yes"/>
      <point x="474" y="20"/>
      <point x="427" y="-57"/>
      <point x="370" y="-21" type="curve" smooth="yes"/>
      <point x="275" y="36"/>
      <point x="171" y="139"/>
      <point x="140" y="200" type="curve" smooth="yes"/>
      <point x="83" y="312"/>
      <point x="104" y="330"/>
      <point x="142" y="343" type="curve"/>
      <point x="148" y="346"/>
      <point x="221" y="389"/>
      <point x="242" y="400" type="curve" smooth="yes"/>
      <point x="279" y="423"/>
      <point x="322" y="452"/>
      <point x="382" y="492" type="curve" smooth="yes"/>
      <point x="438" y="530"/>
      <point x="488" y="455"/>
    </contour>
  </outline>
</glyph>
<glyph name="N" format="2">
  <advance width="688"/>
  <unicode hex="004E"/>
  <outline>
    <contour>
      <point x="3" y="-3" type="curve" smooth="yes"/>
      <point x="-29" y="20"/>
      <point x="-40" y="57"/>
      <point x="-40" y="104" type="curve" smooth="yes"/>
      <point x="-40" y="169"/>
      <point x="-40" y="244"/>
      <point x="-40" y="298" type="curve" smooth="yes"/>
      <point x="-40" y="332"/>
      <point x="-40" y="358"/>
      <point x="-40" y="377" type="curve" smooth="yes"/>
      <point x="-40" y="484"/>
      <point x="128" y="595"/>
      <point x="220" y="505" type="curve" smooth="yes"/>
      <point x="237" y="488"/>
      <point x="258" y="467"/>
      <point x="282" y="444" type="curve" smooth="yes"/>
      <point x="341" y="382"/>
      <point x="412" y="310"/>
      <point x="471" y="251" type="curve" smooth="yes"/>
      <point x="493" y="227"/>
      <point x="513" y="208"/>
      <point x="531" y="190" type="curve" smooth="yes"/>
      <point x="656" y="64"/>
      <point x="398" y="-73"/>
      <point x="398" y="88" type="curve" smooth="yes"/>
      <point x="398" y="107"/>
      <point x="398" y="128"/>
      <point x="398" y="148" type="curve" smooth="yes"/>
      <point x="398" y="227"/>
      <point x="398" y="309"/>
      <point x="398" y="353" type="curve" smooth="yes"/>
      <point x="398" y="387"/>
      <point x="403" y="427"/>
      <point x="426" y="477" type="curve" smooth="yes"/>
      <point x="455" y="538"/>
      <point x="536" y="500"/>
      <point x="508" y="439" type="curve" smooth="yes"/>
      <point x="491" y="403"/>
      <point x="488" y="377"/>
      <point x="488" y="353" type="curve" smooth="yes"/>
      <point x="488" y="287"/>
      <point x="488" y="201"/>
      <point x="488" y="148" type="curve" smooth="yes"/>
      <point x="488" y="119"/>
      <point x="488" y="101"/>
      <point x="488" y="88" type="curve" smooth="yes"/>
      <point x="488" y="82"/>
      <point x="472" y="122"/>
      <point x="467" y="126" type="curve" smooth="yes"/>
      <point x="449" y="144"/>
      <point x="429" y="165"/>
      <point x="407" y="187" type="curve" smooth="yes"/>
      <point x="348" y="246"/>
      <point x="277" y="320"/>
      <point x="218" y="380" type="curve" smooth="yes"/>
      <point x="196" y="403"/>
      <point x="175" y="424"/>
      <point x="156" y="441" type="curve" smooth="yes"/>
      <point x="128" y="469"/>
      <point x="50" y="410"/>
      <point x="50" y="377" type="curve" smooth="yes"/>
      <point x="50" y="349"/>
      <point x="50" y="321"/>
      <point x="50" y="298" type="curve" smooth="yes"/>
      <point x="50" y="218"/>
      <point x="50" y="147"/>
      <point x="50" y="104" type="curve" smooth="yes"/>
      <point x="50" y="98"/>
      <point x="51" y="74"/>
      <point x="55" y="71" type="curve" smooth="yes"/>
      <point x="110" y="32"/>
      <point x="58" y="-42"/>
    </contour>
  </outline>
</glyph>
<glyph name="O" format="2">
  <advance width="732"/>
  <unicode hex="004F"/>
  <outline>
    <contour>
      <point x="224" y="-6" type="curve" smooth="yes"/>
      <point x="161" y="-14"/>
      <point x="117" y="-11"/>
      <point x="76" y="3" type="curve" smooth="yes"/>
      <point x="-29" y="39"/>
      <point x="-75" y="132"/>
      <point x="-75" y="229" type="curve" smooth="yes"/>
      <point x="-75" y="377"/>
      <point x="56" y="489"/>
      <point x="248" y="489" type="curve" smooth="yes"/>
      <point x="439" y="489"/>
      <point x="567" y="377"/>
      <point x="567" y="229" type="curve" smooth="yes"/>
      <point x="567" y="133"/>
      <point x="501" y="46"/>
      <point x="427" y="9" type="curve" smooth="yes"/>
      <point x="387" y="-11"/>
      <point x="352" y="-14"/>
      <point x="322" y="-3" type="curve" smooth="yes"/>
      <point x="259" y="20"/>
      <point x="290" y="105"/>
      <point x="354" y="81" type="curve" smooth="yes"/>
      <point x="361" y="78"/>
      <point x="377" y="84"/>
      <point x="387" y="89" type="curve" smooth="yes"/>
      <point x="433" y="112"/>
      <point x="477" y="169"/>
      <point x="477" y="229" type="curve" smooth="yes"/>
      <point x="477" y="332"/>
      <point x="381" y="399"/>
      <point x="248" y="399" type="curve" smooth="yes"/>
      <point x="115" y="399"/>
      <point x="15" y="332"/>
      <point x="15" y="229" type="curve" smooth="yes"/>
      <point x="15" y="168"/>
      <point x="39" y="111"/>
      <point x="106" y="89" type="curve" smooth="yes"/>
      <point x="135" y="79"/>
      <point x="167" y="78"/>
      <point x="212" y="84" type="curve" smooth="yes"/>
      <point x="279" y="92"/>
      <point x="291" y="3"/>
    </contour>
  </outline>
</glyph>
<glyph name="P" format="2">
  <advance width="555"/>
  <unicode hex="0050"/>
  <outline>
    <contour>
      <point x="157" y="248" type="curve" smooth="yes"/>
      <point x="158" y="248"/>
      <point x="189" y="244"/>
      <point x="191" y="244" type="curve" smooth="yes"/>
      <point x="254" y="238"/>
      <point x="319" y="282"/>
      <point x="331" y="341" type="curve" smooth="yes"/>
      <point x="342" y="397"/>
      <point x="297" y="429"/>
      <point x="233" y="438" type="curve" smooth="yes"/>
      <point x="210" y="441"/>
      <point x="184" y="442"/>
      <point x="156" y="442" type="curve" smooth="yes"/>
      <point x="123" y="442"/>
      <point x="50" y="400"/>
      <point x="50" y="377" type="curve" smooth="yes"/>
      <point x="50" y="271"/>
      <point x="50" y="179"/>
      <point x="50" y="114" type="curve" smooth="yes"/>
      <point x="50" y="106"/>
      <point x="50" y="69"/>
      <point x="55" y="64" type="curve" smooth="yes"/>
      <point x="105" y="19"/>
      <point x="45" y="-48"/>
      <point x="-5" y="-2" type="curve" smooth="yes"/>
      <point x="-36" y="26"/>
      <point x="-40" y="64"/>
      <point x="-40" y="114" type="curve" smooth="yes"/>
      <point x="-40" y="210"/>
      <point x="-40" y="306"/>
      <point x="-40" y="377" type="curve" smooth="yes"/>
      <point x="-40" y="445"/>
      <point x="59" y="532"/>
      <point x="156" y="532" type="curve" smooth="yes"/>
      <point x="188" y="532"/>
      <point x="218" y="531"/>
      <point x="245" y="528" type="curve" smooth="yes"/>
      <point x="366" y="511"/>
      <point x="440" y="429"/>
      <point x="419" y="323" type="curve" smooth="yes"/>
      <point x="399" y="220"/>
      <point x="292" y="144"/>
      <point x="183" y="154" type="curve" smooth="yes"/>
      <point x="134" y="159"/>
      <point x="113" y="167"/>
      <point x="97" y="182" type="curve" smooth="yes"/>
      <point x="47" y="227"/>
      <point x="107" y="294"/>
    </contour>
  </outline>
</glyph>
<glyph name="Q" format="2">
  <advance width="732"/>
  <unicode hex="0051"/>
  <outline>
    <contour>
      <point x="410" y="-60" type="curve" smooth="yes"/>
      <point x="389" y="-38"/>
      <point x="346" y="14"/>
      <point x="307" y="57" type="curve" smooth="yes"/>
      <point x="282" y="85"/>
      <point x="260" y="111"/>
      <point x="248" y="125" type="curve" smooth="yes"/>
      <point x="204" y="176"/>
      <point x="272" y="235"/>
      <point x="316" y="183" type="curve" smooth="yes"/>
      <point x="328" y="169"/>
      <point x="350" y="145"/>
      <point x="375" y="117" type="curve" smooth="yes"/>
      <point x="414" y="72"/>
      <point x="457" y="22"/>
      <point x="476" y="0" type="curve" smooth="yes"/>
      <point x="522" y="-50"/>
      <point x="455" y="-110"/>
    </contour>
    <contour>
      <point x="277" y="-28" type="curve" smooth="yes"/>
      <point x="80" y="-43"/>
      <point x="-75" y="70"/>
      <point x="-75" y="232" type="curve" smooth="yes"/>
      <point x="-75" y="380"/>
      <point x="56" y="492"/>
      <point x="248" y="492" type="curve" smooth="yes"/>
      <point x="436" y="492"/>
      <point x="562" y="382"/>
      <point x="586" y="254" type="curve" smooth="yes"/>
      <point x="598" y="195"/>
      <point x="587" y="148"/>
      <point x="575" y="122" type="curve" smooth="yes"/>
      <point x="548" y="67"/>
      <point x="499" y="72"/>
      <point x="435" y="149" type="curve"/>
      <point x="424" y="162"/>
      <point x="403" y="186"/>
      <point x="378" y="213" type="curve" smooth="yes"/>
      <point x="332" y="263"/>
      <point x="398" y="324"/>
      <point x="444" y="275" type="curve" smooth="yes"/>
      <point x="471" y="246"/>
      <point x="490" y="222"/>
      <point x="505" y="207" type="curve"/>
      <point x="507" y="204"/>
      <point x="493" y="159"/>
      <point x="493" y="160" type="curve" smooth="yes"/>
      <point x="501" y="175"/>
      <point x="504" y="204"/>
      <point x="498" y="238" type="curve" smooth="yes"/>
      <point x="480" y="330"/>
      <point x="384" y="402"/>
      <point x="248" y="402" type="curve" smooth="yes"/>
      <point x="115" y="402"/>
      <point x="15" y="335"/>
      <point x="15" y="232" type="curve" smooth="yes"/>
      <point x="15" y="119"/>
      <point x="133" y="51"/>
      <point x="271" y="62" type="curve" smooth="yes"/>
      <point x="338" y="67"/>
      <point x="345" y="-23"/>
    </contour>
  </outline>
</glyph>
<glyph name="S" format="2">
  <advance width="521"/>
  <unicode hex="0053"/>
  <outline>
    <contour>
      <point x="75" y="89" type="curve" smooth="yes"/>
      <point x="82" y="66"/>
      <point x="117" y="61"/>
      <point x="140" y="60" type="curve" smooth="yes"/>
      <point x="195" y="58"/>
      <point x="264" y="77"/>
      <point x="264" y="118" type="curve" smooth="yes"/>
      <point x="264" y="155"/>
      <point x="172" y="178"/>
      <point x="131" y="191" type="curve" smooth="yes"/>
      <point x="25" y="226"/>
      <point x="-57" y="253"/>
      <point x="-57" y="345" type="curve" smooth="yes"/>
      <point x="-57" y="429"/>
      <point x="11" y="481"/>
      <point x="149" y="488" type="curve" smooth="yes"/>
      <point x="196" y="490"/>
      <point x="240" y="482"/>
      <point x="317" y="490" type="curve" smooth="yes"/>
      <point x="384" y="496"/>
      <point x="393" y="407"/>
      <point x="325" y="400" type="curve" smooth="yes"/>
      <point x="242" y="392"/>
      <point x="196" y="400"/>
      <point x="153" y="398" type="curve" smooth="yes"/>
      <point x="91" y="395"/>
      <point x="33" y="383"/>
      <point x="33" y="345" type="curve" smooth="yes"/>
      <point x="33" y="312"/>
      <point x="121" y="289"/>
      <point x="159" y="277" type="curve" smooth="yes"/>
      <point x="265" y="242"/>
      <point x="354" y="214"/>
      <point x="354" y="118" type="curve" smooth="yes"/>
      <point x="354" y="26"/>
      <point x="258" y="-35"/>
      <point x="136" y="-30" type="curve" smooth="yes"/>
      <point x="71" y="-27"/>
      <point x="9" y="-2"/>
      <point x="-11" y="63" type="curve" smooth="yes"/>
      <point x="-31" y="127"/>
      <point x="55" y="154"/>
    </contour>
  </outline>
</glyph>
<glyph name="T" format="2">
  <advance width="498"/>
  <unicode hex="0054"/>
  <outline>
    <contour>
      <point x="348" y="418" type="curve" smooth="yes"/>
      <point x="259" y="388"/>
      <point x="116" y="393"/>
      <point x="25" y="398" type="curve" smooth="yes"/>
      <point x="-150" y="410"/>
      <point x="-14" y="585"/>
      <point x="140" y="571" type="curve" smooth="yes"/>
      <point x="282" y="559"/>
      <point x="174" y="376"/>
      <point x="174" y="330" type="curve" smooth="yes"/>
      <point x="174" y="253"/>
      <point x="174" y="162"/>
      <point x="174" y="126" type="curve" smooth="yes"/>
      <point x="174" y="121"/>
      <point x="175" y="100"/>
      <point x="179" y="100" type="curve" smooth="yes"/>
      <point x="246" y="102"/>
      <point x="249" y="12"/>
      <point x="181" y="10" type="curve" smooth="yes"/>
      <point x="120" y="8"/>
      <point x="84" y="54"/>
      <point x="84" y="126" type="curve" smooth="yes"/>
      <point x="84" y="180"/>
      <point x="84" y="278"/>
      <point x="84" y="330" type="curve" smooth="yes"/>
      <point x="84" y="523"/>
      <point x="166" y="478"/>
      <point x="132" y="481" type="curve" smooth="yes"/>
      <point x="125" y="482"/>
      <point x="24" y="488"/>
      <point x="31" y="488" type="curve" smooth="yes"/>
      <point x="106" y="483"/>
      <point x="245" y="478"/>
      <point x="318" y="504" type="curve" smooth="yes"/>
      <point x="382" y="526"/>
      <point x="411" y="441"/>
    </contour>
  </outline>
</glyph>
<glyph name="U" format="2">
  <advance width="668"/>
  <unicode hex="0055"/>
  <outline>
    <contour>
      <point x="63" y="437" type="curve" smooth="yes"/>
      <point x="39" y="402"/>
      <point x="40" y="364"/>
      <point x="40" y="345" type="curve" smooth="yes"/>
      <point x="40" y="268"/>
      <point x="40" y="230"/>
      <point x="40" y="178" type="curve" smooth="yes"/>
      <point x="40" y="104"/>
      <point x="112" y="57"/>
      <point x="222" y="65" type="curve" smooth="yes"/>
      <point x="337" y="73"/>
      <point x="388" y="103"/>
      <point x="388" y="178" type="curve" smooth="yes"/>
      <point x="388" y="255"/>
      <point x="388" y="293"/>
      <point x="388" y="345" type="curve" smooth="yes"/>
      <point x="388" y="375"/>
      <point x="389" y="431"/>
      <point x="425" y="487" type="curve" smooth="yes"/>
      <point x="462" y="543"/>
      <point x="538" y="494"/>
      <point x="501" y="437" type="curve" smooth="yes"/>
      <point x="477" y="402"/>
      <point x="478" y="364"/>
      <point x="478" y="345" type="curve" smooth="yes"/>
      <point x="478" y="268"/>
      <point x="478" y="230"/>
      <point x="478" y="178" type="curve" smooth="yes"/>
      <point x="478" y="62"/>
      <point x="406" y="-12"/>
      <point x="228" y="-25" type="curve" smooth="yes"/>
      <point x="53" y="-37"/>
      <point x="-50" y="60"/>
      <point x="-50" y="178" type="curve" smooth="yes"/>
      <point x="-50" y="255"/>
      <point x="-50" y="293"/>
      <point x="-50" y="345" type="curve" smooth="yes"/>
      <point x="-50" y="375"/>
      <point x="-49" y="431"/>
      <point x="-13" y="487" type="curve" smooth="yes"/>
      <point x="24" y="543"/>
      <point x="100" y="494"/>
    </contour>
  </outline>
</glyph>
<glyph name="V" format="2">
  <advance width="620"/>
  <unicode hex="0056"/>
  <outline>
    <contour>
      <point x="484" y="431" type="curve" smooth="yes"/>
      <point x="442" y="376"/>
      <point x="412" y="328"/>
      <point x="407" y="304" type="curve" smooth="yes"/>
      <point x="401" y="269"/>
      <point x="402" y="214"/>
      <point x="383" y="150" type="curve" smooth="yes"/>
      <point x="346" y="24"/>
      <point x="169" y="-92"/>
      <point x="86" y="73" type="curve" smooth="yes"/>
      <point x="44" y="157"/>
      <point x="6" y="232"/>
      <point x="-28" y="301" type="curve" smooth="yes"/>
      <point x="-50" y="344"/>
      <point x="-71" y="397"/>
      <point x="-73" y="456" type="curve" smooth="yes"/>
      <point x="-76" y="524"/>
      <point x="14" y="527"/>
      <point x="17" y="460" type="curve" smooth="yes"/>
      <point x="19" y="415"/>
      <point x="36" y="374"/>
      <point x="52" y="341" type="curve" smooth="yes"/>
      <point x="87" y="270"/>
      <point x="126" y="194"/>
      <point x="166" y="113" type="curve" smooth="yes"/>
      <point x="204" y="39"/>
      <point x="280" y="118"/>
      <point x="297" y="174" type="curve" smooth="yes"/>
      <point x="312" y="230"/>
      <point x="311" y="279"/>
      <point x="319" y="322" type="curve" smooth="yes"/>
      <point x="326" y="357"/>
      <point x="351" y="406"/>
      <point x="412" y="485" type="curve" smooth="yes"/>
      <point x="453" y="539"/>
      <point x="525" y="484"/>
    </contour>
  </outline>
</glyph>
<glyph name="W" format="2">
  <advance width="888"/>
  <unicode hex="0057"/>
  <outline>
    <contour>
      <point x="24" y="451" type="curve" smooth="yes"/>
      <point x="19" y="420"/>
      <point x="44" y="366"/>
      <point x="53" y="345" type="curve" smooth="yes"/>
      <point x="82" y="275"/>
      <point x="106" y="216"/>
      <point x="139" y="144" type="curve" smooth="yes"/>
      <point x="145" y="128"/>
      <point x="153" y="112"/>
      <point x="159" y="97" type="curve" smooth="yes"/>
      <point x="175" y="61"/>
      <point x="255" y="143"/>
      <point x="270" y="180" type="curve" smooth="yes"/>
      <point x="277" y="197"/>
      <point x="283" y="215"/>
      <point x="289" y="231" type="curve" smooth="yes"/>
      <point x="312" y="294"/>
      <point x="333" y="356"/>
      <point x="353" y="412" type="curve" smooth="yes"/>
      <point x="360" y="432"/>
      <point x="366" y="449"/>
      <point x="373" y="469" type="curve" smooth="yes"/>
      <point x="375" y="475"/>
      <point x="391" y="386"/>
      <point x="393" y="379" type="curve" smooth="yes"/>
      <point x="399" y="362"/>
      <point x="405" y="345"/>
      <point x="410" y="329" type="curve" smooth="yes"/>
      <point x="430" y="271"/>
      <point x="454" y="208"/>
      <point x="476" y="146" type="curve" smooth="yes"/>
      <point x="484" y="125"/>
      <point x="490" y="109"/>
      <point x="494" y="95" type="curve" smooth="yes"/>
      <point x="507" y="59"/>
      <point x="595" y="146"/>
      <point x="611" y="184" type="curve" smooth="yes"/>
      <point x="611" y="186"/>
      <point x="620" y="206"/>
      <point x="620" y="207" type="curve" smooth="yes"/>
      <point x="617" y="244"/>
      <point x="550" y="231"/>
      <point x="601" y="356" type="curve" smooth="yes"/>
      <point x="615" y="391"/>
      <point x="636" y="437"/>
      <point x="672" y="485" type="curve" smooth="yes"/>
      <point x="713" y="539"/>
      <point x="785" y="485"/>
      <point x="744" y="431" type="curve" smooth="yes"/>
      <point x="714" y="391"/>
      <point x="697" y="351"/>
      <point x="685" y="322" type="curve" smooth="yes"/>
      <point x="657" y="256"/>
      <point x="704" y="283"/>
      <point x="710" y="215" type="curve" smooth="yes"/>
      <point x="711" y="197"/>
      <point x="706" y="178"/>
      <point x="693" y="148" type="curve" smooth="yes"/>
      <point x="637" y="14"/>
      <point x="456" y="-65"/>
      <point x="410" y="65" type="curve" smooth="yes"/>
      <point x="402" y="86"/>
      <point x="396" y="102"/>
      <point x="392" y="116" type="curve" smooth="yes"/>
      <point x="370" y="176"/>
      <point x="346" y="241"/>
      <point x="326" y="299" type="curve" smooth="yes"/>
      <point x="319" y="317"/>
      <point x="313" y="334"/>
      <point x="309" y="349" type="curve" smooth="yes"/>
      <point x="244" y="531"/>
      <point x="522" y="620"/>
      <point x="457" y="437" type="curve" smooth="yes"/>
      <point x="450" y="419"/>
      <point x="444" y="402"/>
      <point x="437" y="382" type="curve" smooth="yes"/>
      <point x="417" y="326"/>
      <point x="396" y="264"/>
      <point x="373" y="201" type="curve" smooth="yes"/>
      <point x="367" y="183"/>
      <point x="361" y="165"/>
      <point x="354" y="148" type="curve" smooth="yes"/>
      <point x="303" y="18"/>
      <point x="130" y="-64"/>
      <point x="77" y="61" type="curve" smooth="yes"/>
      <point x="69" y="78"/>
      <point x="63" y="92"/>
      <point x="57" y="106" type="curve" smooth="yes"/>
      <point x="24" y="180"/>
      <point x="0" y="239"/>
      <point x="-29" y="309" type="curve" smooth="yes"/>
      <point x="-46" y="347"/>
      <point x="-73" y="409"/>
      <point x="-64" y="465" type="curve" smooth="yes"/>
      <point x="-54" y="532"/>
      <point x="35" y="518"/>
    </contour>
  </outline>
</glyph>
<glyph name="bracketleft" format="2">
  <advance width="430"/>
  <unicode hex="005B"/>
  <outline>
    <contour>
      <point x="192" y="471" type="curve" smooth="yes"/>
      <point x="146" y="520"/>
      <point x="83" y="460"/>
      <point x="83" y="386" type="curve" smooth="yes"/>
      <point x="83" y="200"/>
      <point x="83" y="146"/>
      <point x="83" y="21" type="curve" smooth="yes"/>
      <point x="83" y="-56"/>
      <point x="158" y="56"/>
      <point x="259" y="-59" type="curve" smooth="yes"/>
      <point x="303" y="-110"/>
      <point x="235" y="-169"/>
      <point x="191" y="-119" type="curve" smooth="yes"/>
      <point x="142" y="-63"/>
      <point x="-7" y="-140"/>
      <point x="-7" y="21" type="curve" smooth="yes"/>
      <point x="-7" y="207"/>
      <point x="-7" y="261"/>
      <point x="-7" y="386" type="curve" smooth="yes"/>
      <point x="-7" y="547"/>
      <point x="157" y="640"/>
      <point x="258" y="533" type="curve" smooth="yes"/>
      <point x="304" y="484"/>
      <point x="239" y="422"/>
    </contour>
  </outline>
</glyph>
<glyph name="backslash" format="2">
  <advance width="490"/>
  <unicode hex="005C"/>
  <outline>
    <contour>
      <point x="351" y="-31" type="curve" smooth="yes"/>
      <point x="71" y="570" type="line" smooth="yes"/>
      <point x="43" y="631"/>
      <point x="124" y="669"/>
      <point x="153" y="608" type="curve" smooth="yes"/>
      <point x="433" y="7" type="line" smooth="yes"/>
      <point x="461" y="-54"/>
      <point x="380" y="-92"/>
    </contour>
  </outline>
</glyph>
<glyph name="bracketright" format="2">
  <advance width="430"/>
  <unicode hex="005D"/>
  <outline>
    <contour>
      <point x="-35" y="-44" type="curve" smooth="yes"/>
      <point x="152" y="-44" type="line"/>
      <point x="107" y="-89" type="line"/>
      <point x="107" y="502" type="line"/>
      <point x="152" y="457" type="line"/>
      <point x="-35" y="457" type="line" smooth="yes"/>
      <point x="-102" y="457"/>
      <point x="-102" y="547"/>
      <point x="-35" y="547" type="curve" smooth="yes"/>
      <point x="152" y="547" type="line" smooth="yes"/>
      <point x="177" y="547"/>
      <point x="197" y="527"/>
      <point x="197" y="502" type="curve" smooth="yes"/>
      <point x="197" y="-89" type="line" smooth="yes"/>
      <point x="197" y="-114"/>
      <point x="177" y="-134"/>
      <point x="152" y="-134" type="curve" smooth="yes"/>
      <point x="-35" y="-134" type="line" smooth="yes"/>
      <point x="-102" y="-134"/>
      <point x="-102" y="-44"/>
    </contour>
  </outline>
</glyph>
<glyph name="asciicircum" format="2">
  <advance width="560"/>
  <unicode hex="005E"/>
  <outline>
    <contour>
      <point x="75" y="313" type="curve" smooth="yes"/>
      <point x="240" y="552" type="line" smooth="yes"/>
      <point x="258" y="577"/>
      <point x="296" y="578"/>
      <point x="314" y="552" type="curve" smooth="yes"/>
      <point x="484" y="313" type="line" smooth="yes"/>
      <point x="523" y="258"/>
      <point x="449" y="206"/>
      <point x="410" y="261" type="curve" smooth="yes"/>
      <point x="240" y="500" type="line"/>
      <point x="314" y="500" type="line"/>
      <point x="149" y="261" type="line" smooth="yes"/>
      <point x="111" y="206"/>
      <point x="37" y="257"/>
    </contour>
  </outline>
</glyph>
<glyph name="underscore" format="2">
  <advance width="535"/>
  <unicode hex="005F"/>
  <outline>
    <contour>
      <point x="417" y="-109" type="curve" smooth="yes"/>
      <point x="199" y="-109"/>
      <point x="24" y="-109"/>
      <point x="-122" y="-109" type="curve" smooth="yes"/>
      <point x="-189" y="-109"/>
      <point x="-189" y="-19"/>
      <point x="-122" y="-19" type="curve" smooth="yes"/>
      <point x="96" y="-19"/>
      <point x="271" y="-19"/>
      <point x="417" y="-19" type="curve" smooth="yes"/>
      <point x="485" y="-19"/>
      <point x="485" y="-109"/>
    </contour>
  </outline>
</glyph>
<glyph name="c" format="2">
  <advance width="475"/>
  <unicode hex="0063"/>
  <outline>
    <contour>
      <point x="326" y="31" type="curve" smooth="yes"/>
      <point x="317" y="31"/>
      <point x="279" y="30"/>
      <point x="242" y="31" type="curve" smooth="yes"/>
      <point x="134" y="32"/>
      <point x="-36" y="31"/>
      <point x="-164" y="31" type="curve" smooth="yes"/>
      <point x="-207" y="31"/>
      <point x="-492" y="121"/>
      <point x="-187" y="121" type="curve" smooth="yes"/>
      <point x="-141" y="121"/>
      <point x="-80" y="121"/>
      <point x="-35" y="121" type="curve" smooth="yes"/>
      <point x="33" y="121"/>
      <point x="33" y="31"/>
      <point x="-35" y="31" type="curve" smooth="yes"/>
      <point x="-102" y="31"/>
      <point x="-156" y="31"/>
      <point x="-187" y="31" type="curve" smooth="yes"/>
      <point x="-227" y="31"/>
      <point x="-489" y="121"/>
      <point x="-164" y="121" type="curve" smooth="yes"/>
      <point x="-32" y="121"/>
      <point x="138" y="122"/>
      <point x="244" y="121" type="curve" smooth="yes"/>
      <point x="279" y="120"/>
      <point x="317" y="121"/>
      <point x="326" y="121" type="curve" smooth="yes"/>
      <point x="394" y="121"/>
      <point x="394" y="31"/>
    </contour>
  </outline>
</glyph>
<glyph name="d" format="2">
  <advance width="584"/>
  <unicode hex="0064"/>
  <outline>
    <contour>
      <point x="406" y="474" type="curve" smooth="yes"/>
      <point x="398" y="455"/>
      <point x="397" y="441"/>
      <point x="401" y="423" type="curve" smooth="yes"/>
      <point x="417" y="359"/>
      <point x="519" y="392"/>
      <point x="519" y="243" type="curve" smooth="yes"/>
      <point x="519" y="134"/>
      <point x="330" y="-12"/>
      <point x="165" y="-30" type="curve" smooth="yes"/>
      <point x="0" y="-47"/>
      <point x="-81" y="58"/>
      <point x="-81" y="167" type="curve" smooth="yes"/>
      <point x="-81" y="277"/>
      <point x="17" y="363"/>
      <point x="159" y="363" type="curve" smooth="yes"/>
      <point x="299" y="363"/>
      <point x="389" y="272"/>
      <point x="389" y="161" type="curve" smooth="yes"/>
      <point x="389" y="129"/>
      <point x="389" y="91"/>
      <point x="389" y="75" type="curve" smooth="yes"/>
      <point x="389" y="63"/>
      <point x="391" y="47"/>
      <point x="396" y="38" type="curve" smooth="yes"/>
      <point x="432" y="-19"/>
      <point x="356" y="-67"/>
      <point x="320" y="-10" type="curve" smooth="yes"/>
      <point x="306" y="13"/>
      <point x="299" y="42"/>
      <point x="299" y="75" type="curve" smooth="yes"/>
      <point x="299" y="99"/>
      <point x="299" y="140"/>
      <point x="299" y="161" type="curve" smooth="yes"/>
      <point x="299" y="227"/>
      <point x="243" y="273"/>
      <point x="159" y="273" type="curve" smooth="yes"/>
      <point x="76" y="273"/>
      <point x="9" y="232"/>
      <point x="9" y="167" type="curve" smooth="yes"/>
      <point x="9" y="100"/>
      <point x="55" y="49"/>
      <point x="155" y="60" type="curve" smooth="yes"/>
      <point x="255" y="70"/>
      <point x="429" y="177"/>
      <point x="429" y="243" type="curve" smooth="yes"/>
      <point x="429" y="332"/>
      <point x="341" y="293"/>
      <point x="313" y="403" type="curve" smooth="yes"/>
      <point x="305" y="437"/>
      <point x="308" y="469"/>
      <point x="322" y="506" type="curve" smooth="yes"/>
      <point x="347" y="569"/>
      <point x="431" y="536"/>
    </contour>
  </outline>
</glyph>
<glyph name="f" format="2">
  <advance width="364"/>
  <unicode hex="0066"/>
  <outline>
    <contour>
      <point x="281" y="466" type="curve" smooth="yes"/>
      <point x="195" y="460"/>
      <point x="88" y="442"/>
      <point x="88" y="404" type="curve" smooth="yes"/>
      <point x="88" y="283"/>
      <point x="88" y="176"/>
      <point x="88" y="129" type="curve" smooth="yes"/>
      <point x="88" y="121"/>
      <point x="90" y="74"/>
      <point x="94" y="70" type="curve" smooth="yes"/>
      <point x="147" y="28"/>
      <point x="91" y="-42"/>
      <point x="38" y="0" type="curve" smooth="yes"/>
      <point x="6" y="25"/>
      <point x="-2" y="70"/>
      <point x="-2" y="129" type="curve" smooth="yes"/>
      <point x="-2" y="198"/>
      <point x="-2" y="323"/>
      <point x="-2" y="404" type="curve" smooth="yes"/>
      <point x="-2" y="491"/>
      <point x="79" y="543"/>
      <point x="275" y="556" type="curve" smooth="yes"/>
      <point x="342" y="560"/>
      <point x="348" y="471"/>
    </contour>
    <contour>
      <point x="229" y="294" type="curve" smooth="yes"/>
      <point x="170" y="294"/>
      <point x="143" y="311"/>
      <point x="130" y="332" type="curve"/>
      <point x="130" y="332"/>
      <point x="74" y="315"/>
      <point x="69" y="314" type="curve" smooth="yes"/>
      <point x="27" y="302"/>
      <point x="4" y="294"/>
      <point x="-23" y="294" type="curve" smooth="yes"/>
      <point x="-90" y="294"/>
      <point x="-90" y="384"/>
      <point x="-23" y="384" type="curve" smooth="yes"/>
      <point x="-9" y="384"/>
      <point x="23" y="394"/>
      <point x="43" y="400" type="curve" smooth="yes"/>
      <point x="145" y="430"/>
      <point x="183" y="412"/>
      <point x="204" y="382" type="curve" smooth="yes"/>
      <point x="205" y="381"/>
      <point x="226" y="384"/>
      <point x="229" y="384" type="curve" smooth="yes"/>
      <point x="297" y="384"/>
      <point x="297" y="294"/>
    </contour>
  </outline>
</glyph>
<glyph name="h" format="2">
  <advance width="568"/>
  <unicode hex="0068"/>
  <outline>
    <contour>
      <point x="362" y="-5" type="curve" smooth="yes"/>
      <point x="310" y="13"/>
      <point x="301" y="57"/>
      <point x="301" y="112" type="curve" smooth="yes"/>
      <point x="301" y="146"/>
      <point x="301" y="174"/>
      <point x="301" y="196" type="curve" smooth="yes"/>
      <point x="301" y="234"/>
      <point x="195" y="263"/>
      <point x="170" y="276" type="curve" smooth="yes"/>
      <point x="152" y="286"/>
      <point x="156" y="281"/>
      <point x="156" y="256" type="curve" smooth="yes"/>
      <point x="156" y="207"/>
      <point x="156" y="193"/>
      <point x="156" y="165" type="curve" smooth="yes"/>
      <point x="156" y="16"/>
      <point x="-54" y="-69"/>
      <point x="-54" y="80" type="curve" smooth="yes"/>
      <point x="-54" y="140"/>
      <point x="-54" y="357"/>
      <point x="-54" y="372" type="curve" smooth="yes"/>
      <point x="-54" y="427"/>
      <point x="-53" y="465"/>
      <point x="-18" y="523" type="curve" smooth="yes"/>
      <point x="17" y="581"/>
      <point x="94" y="535"/>
      <point x="60" y="477" type="curve" smooth="yes"/>
      <point x="35" y="435"/>
      <point x="36" y="411"/>
      <point x="36" y="372" type="curve" smooth="yes"/>
      <point x="36" y="350"/>
      <point x="36" y="120"/>
      <point x="36" y="80" type="curve" smooth="yes"/>
      <point x="36" y="74"/>
      <point x="66" y="159"/>
      <point x="66" y="165" type="curve" smooth="yes"/>
      <point x="66" y="206"/>
      <point x="66" y="223"/>
      <point x="66" y="256" type="curve" smooth="yes"/>
      <point x="66" y="388"/>
      <point x="117" y="406"/>
      <point x="212" y="356" type="curve" smooth="yes"/>
      <point x="286" y="316"/>
      <point x="391" y="307"/>
      <point x="391" y="196" type="curve" smooth="yes"/>
      <point x="391" y="163"/>
      <point x="391" y="135"/>
      <point x="391" y="112" type="curve" smooth="yes"/>
      <point x="391" y="110"/>
      <point x="388" y="81"/>
      <point x="390" y="81" type="curve" smooth="yes"/>
      <point x="454" y="59"/>
      <point x="426" y="-26"/>
    </contour>
  </outline>
</glyph>
<glyph name="n" format="2">
  <advance width="568"/>
  <unicode hex="006E"/>
  <outline>
    <contour>
      <point x="362" y="-5" type="curve" smooth="yes"/>
      <point x="310" y="13"/>
      <point x="301" y="57"/>
      <point x="301" y="112" type="curve" smooth="yes"/>
      <point x="301" y="146"/>
      <point x="301" y="174"/>
      <point x="301" y="196" type="curve" smooth="yes"/>
      <point x="301" y="234"/>
      <point x="195" y="263"/>
      <point x="170" y="276" type="curve" smooth="yes"/>
      <point x="152" y="286"/>
      <point x="156" y="281"/>
      <point x="156" y="256" type="curve" smooth="yes"/>
      <point x="156" y="207"/>
      <point x="156" y="193"/>
      <point x="156" y="165" type="curve" smooth="yes"/>
      <point x="156" y="16"/>
      <point x="-54" y="-69"/>
      <point x="-54" y="80" type="curve" smooth="yes"/>
      <point x="-54" y="140"/>
      <point x="-54" y="212"/>
      <point x="-54" y="227" type="curve" smooth="yes"/>
      <point x="-54" y="261"/>
      <point x="-53" y="298"/>
      <point x="-17" y="356" type="curve" smooth="yes"/>
      <point x="18" y="414"/>
      <point x="95" y="367"/>
      <point x="59" y="310" type="curve" smooth="yes"/>
      <point x="35" y="270"/>
      <point x="36" y="250"/>
      <point x="36" y="227" type="curve" smooth="yes"/>
      <point x="36" y="205"/>
      <point x="36" y="120"/>
      <point x="36" y="80" type="curve" smooth="yes"/>
      <point x="36" y="74"/>
      <point x="66" y="159"/>
      <point x="66" y="165" type="curve" smooth="yes"/>
      <point x="66" y="206"/>
      <point x="66" y="223"/>
      <point x="66" y="256" type="curve" smooth="yes"/>
      <point x="66" y="388"/>
      <point x="117" y="406"/>
      <point x="212" y="356" type="curve" smooth="yes"/>
      <point x="286" y="316"/>
      <point x="391" y="307"/>
      <point x="391" y="196" type="curve" smooth="yes"/>
      <point x="391" y="163"/>
      <point x="391" y="135"/>
      <point x="391" y="112" type="curve" smooth="yes"/>
      <point x="391" y="110"/>
      <point x="388" y="81"/>
      <point x="390" y="81" type="curve" smooth="yes"/>
      <point x="454" y="59"/>
      <point x="426" y="-26"/>
    </contour>
  </outline>
</glyph>
<glyph name="r" format="2">
  <advance width="389"/>
  <unicode hex="0072"/>
  <outline>
    <contour>
      <point x="272" y="306" type="curve" smooth="yes"/>
      <point x="84" y="272"/>
      <point x="37" y="241"/>
      <point x="37" y="174" type="curve" smooth="yes"/>
      <point x="37" y="149"/>
      <point x="31" y="102"/>
      <point x="31" y="80" type="curve" smooth="yes"/>
      <point x="31" y="73"/>
      <point x="59" y="160"/>
      <point x="60" y="167" type="curve" smooth="yes"/>
      <point x="65" y="196"/>
      <point x="65" y="233"/>
      <point x="61" y="255" type="curve" smooth="yes"/>
      <point x="52" y="302"/>
      <point x="26" y="329"/>
      <point x="66" y="411" type="curve" smooth="yes"/>
      <point x="95" y="471"/>
      <point x="176" y="432"/>
      <point x="146" y="371" type="curve" smooth="yes"/>
      <point x="123" y="324"/>
      <point x="144" y="299"/>
      <point x="149" y="271" type="curve" smooth="yes"/>
      <point x="155" y="241"/>
      <point x="155" y="196"/>
      <point x="150" y="155" type="curve" smooth="yes"/>
      <point x="128" y="-3"/>
      <point x="-59" y="-67"/>
      <point x="-59" y="80" type="curve" smooth="yes"/>
      <point x="-59" y="108"/>
      <point x="-53" y="154"/>
      <point x="-53" y="174" type="curve" smooth="yes"/>
      <point x="-53" y="271"/>
      <point x="-16" y="345"/>
      <point x="256" y="394" type="curve" smooth="yes"/>
      <point x="322" y="406"/>
      <point x="338" y="318"/>
    </contour>
  </outline>
</glyph>
<glyph name="u" format="2">
  <advance width="568"/>
  <unicode hex="0075"/>
  <outline>
    <contour>
      <point x="45" y="312" type="curve" smooth="yes"/>
      <point x="22" y="242"/>
      <point x="27" y="189"/>
      <point x="27" y="135" type="curve" smooth="yes"/>
      <point x="27" y="80"/>
      <point x="71" y="57"/>
      <point x="138" y="57" type="curve" smooth="yes"/>
      <point x="218" y="57"/>
      <point x="293" y="97"/>
      <point x="293" y="147" type="curve" smooth="yes"/>
      <point x="293" y="180"/>
      <point x="293" y="230"/>
      <point x="293" y="252" type="curve" smooth="yes"/>
      <point x="293" y="399"/>
      <point x="503" y="484"/>
      <point x="503" y="337" type="curve" smooth="yes"/>
      <point x="503" y="289"/>
      <point x="503" y="224"/>
      <point x="503" y="181" type="curve" smooth="yes"/>
      <point x="503" y="169"/>
      <point x="503" y="135"/>
      <point x="507" y="127" type="curve" smooth="yes"/>
      <point x="540" y="68"/>
      <point x="461" y="24"/>
      <point x="429" y="83" type="curve" smooth="yes"/>
      <point x="414" y="109"/>
      <point x="413" y="142"/>
      <point x="413" y="181" type="curve" smooth="yes"/>
      <point x="413" y="246"/>
      <point x="413" y="305"/>
      <point x="413" y="337" type="curve" smooth="yes"/>
      <point x="413" y="343"/>
      <point x="383" y="258"/>
      <point x="383" y="252" type="curve" smooth="yes"/>
      <point x="383" y="219"/>
      <point x="383" y="169"/>
      <point x="383" y="147" type="curve" smooth="yes"/>
      <point x="383" y="54"/>
      <point x="286" y="-33"/>
      <point x="138" y="-33" type="curve" smooth="yes"/>
      <point x="14" y="-33"/>
      <point x="-63" y="33"/>
      <point x="-63" y="135" type="curve" smooth="yes"/>
      <point x="-63" y="199"/>
      <point x="-68" y="256"/>
      <point x="-41" y="340" type="curve" smooth="yes"/>
      <point x="-20" y="404"/>
      <point x="66" y="376"/>
    </contour>
  </outline>
</glyph>
<glyph name="v" format="2">
  <advance width="489"/>
  <unicode hex="0076"/>
  <outline>
    <contour>
      <point x="14" y="333" type="curve" smooth="yes"/>
      <point x="17" y="285"/>
      <point x="23" y="259"/>
      <point x="34" y="239" type="curve" smooth="yes"/>
      <point x="66" y="184"/>
      <point x="83" y="148"/>
      <point x="116" y="94" type="curve" smooth="yes"/>
      <point x="139" y="54"/>
      <point x="163" y="90"/>
      <point x="185" y="128" type="curve" smooth="yes"/>
      <point x="211" y="175"/>
      <point x="191" y="182"/>
      <point x="216" y="240" type="curve" smooth="yes"/>
      <point x="226" y="266"/>
      <point x="245" y="289"/>
      <point x="295" y="356" type="curve" smooth="yes"/>
      <point x="334" y="411"/>
      <point x="407" y="358"/>
      <point x="367" y="304" type="curve" smooth="yes"/>
      <point x="338" y="264"/>
      <point x="305" y="221"/>
      <point x="298" y="204" type="curve" smooth="yes"/>
      <point x="281" y="163"/>
      <point x="300" y="150"/>
      <point x="263" y="84" type="curve" smooth="yes"/>
      <point x="205" y="-20"/>
      <point x="102" y="-60"/>
      <point x="38" y="48" type="curve" smooth="yes"/>
      <point x="5" y="104"/>
      <point x="-14" y="141"/>
      <point x="-44" y="195" type="curve" smooth="yes"/>
      <point x="-61" y="224"/>
      <point x="-71" y="258"/>
      <point x="-76" y="327" type="curve" smooth="yes"/>
      <point x="-80" y="394"/>
      <point x="9" y="400"/>
    </contour>
  </outline>
</glyph>
<glyph name="braceleft" format="2">
  <advance width="466"/>
  <unicode hex="007B"/>
  <outline>
    <contour>
      <point x="251" y="454" type="curve" smooth="yes"/>
      <point x="210" y="463"/>
      <point x="170" y="466"/>
      <point x="141" y="460" type="curve" smooth="yes"/>
      <point x="118" y="456"/>
      <point x="96" y="446"/>
      <point x="96" y="429" type="curve" smooth="yes"/>
      <point x="96" y="399"/>
      <point x="150" y="356"/>
      <point x="176" y="348" type="curve" smooth="yes"/>
      <point x="249" y="325"/>
      <point x="281" y="246"/>
      <point x="126" y="246" type="curve" smooth="yes"/>
      <point x="121" y="246"/>
      <point x="1" y="251"/>
      <point x="6" y="251" type="curve" smooth="yes"/>
      <point x="119" y="251"/>
      <point x="154" y="199"/>
      <point x="154" y="146" type="curve" smooth="yes"/>
      <point x="154" y="82"/>
      <point x="96" y="21"/>
      <point x="96" y="-16" type="curve" smooth="yes"/>
      <point x="96" y="-33"/>
      <point x="114" y="-42"/>
      <point x="134" y="-46" type="curve" smooth="yes"/>
      <point x="166" y="-54"/>
      <point x="207" y="-52"/>
      <point x="251" y="-42" type="curve" smooth="yes"/>
      <point x="317" y="-27"/>
      <point x="337" y="-115"/>
      <point x="271" y="-130" type="curve" smooth="yes"/>
      <point x="210" y="-144"/>
      <point x="156" y="-144"/>
      <point x="114" y="-134" type="curve" smooth="yes"/>
      <point x="46" y="-119"/>
      <point x="6" y="-74"/>
      <point x="6" y="-16" type="curve" smooth="yes"/>
      <point x="6" y="52"/>
      <point x="64" y="111"/>
      <point x="64" y="146" type="curve" smooth="yes"/>
      <point x="64" y="158"/>
      <point x="31" y="161"/>
      <point x="6" y="161" type="curve" smooth="yes"/>
      <point x="-140" y="161"/>
      <point x="-22" y="336"/>
      <point x="126" y="336" type="curve" smooth="yes"/>
      <point x="132" y="336"/>
      <point x="153" y="261"/>
      <point x="152" y="262" type="curve" smooth="yes"/>
      <point x="87" y="280"/>
      <point x="6" y="355"/>
      <point x="6" y="429" type="curve" smooth="yes"/>
      <point x="6" y="488"/>
      <point x="49" y="535"/>
      <point x="123" y="548" type="curve" smooth="yes"/>
      <point x="164" y="556"/>
      <point x="214" y="555"/>
      <point x="271" y="542" type="curve" smooth="yes"/>
      <point x="337" y="527"/>
      <point x="317" y="439"/>
    </contour>
  </outline>
</glyph>
<glyph name="cent" format="2">
  <advance width="475"/>
  <unicode hex="00A2"/>
  <outline>
    <contour>
      <point x="392" y="140" type="curve" smooth="yes"/>
      <point x="228" y="85"/>
      <point x="47" y="158"/>
      <point x="47" y="295" type="curve" smooth="yes"/>
      <point x="47" y="432"/>
      <point x="228" y="506"/>
      <point x="392" y="451" type="curve" smooth="yes"/>
      <point x="456" y="429"/>
      <point x="428" y="344"/>
      <point x="364" y="365" type="curve" smooth="yes"/>
      <point x="273" y="396"/>
      <point x="137" y="371"/>
      <point x="137" y="295" type="curve" smooth="yes"/>
      <point x="137" y="219"/>
      <point x="273" y="195"/>
      <point x="364" y="226" type="curve" smooth="yes"/>
      <point x="428" y="247"/>
      <point x="456" y="162"/>
    </contour>
    <contour>
      <point x="197" y="70" type="curve" smooth="yes"/>
      <point x="207" y="172" type="line" smooth="yes"/>
      <point x="214" y="240"/>
      <point x="303" y="231"/>
      <point x="297" y="164" type="curve" smooth="yes"/>
      <point x="287" y="62" type="line" smooth="yes"/>
      <point x="280" y="-6"/>
      <point x="191" y="3"/>
    </contour>
    <contour>
      <point x="227" y="428" type="curve" smooth="yes"/>
      <point x="235" y="530" type="line" smooth="yes"/>
      <point x="240" y="597"/>
      <point x="330" y="590"/>
      <point x="325" y="522" type="curve" smooth="yes"/>
      <point x="317" y="420" type="line" smooth="yes"/>
      <point x="312" y="353"/>
      <point x="222" y="360"/>
    </contour>
  </outline>
</glyph>
<glyph name="currency" format="2">
  <advance width="646"/>
  <unicode hex="00A4"/>
  <outline>
    <contour>
      <point x="322" y="241" type="curve" smooth="yes"/>
      <point x="388" y="241"/>
      <point x="445" y="269"/>
      <point x="445" y="316" type="curve" smooth="yes"/>
      <point x="445" y="364"/>
      <point x="388" y="390"/>
      <point x="322" y="390" type="curve" smooth="yes"/>
      <point x="256" y="390"/>
      <point x="202" y="364"/>
      <point x="202" y="316" type="curve" smooth="yes"/>
      <point x="202" y="269"/>
      <point x="256" y="241"/>
    </contour>
    <contour>
      <point x="175" y="365" type="curve" smooth="yes"/>
      <point x="74" y="436" type="line" smooth="yes"/>
      <point x="19" y="475"/>
      <point x="71" y="549"/>
      <point x="126" y="510" type="curve" smooth="yes"/>
      <point x="227" y="439" type="line" smooth="yes"/>
      <point x="282" y="400"/>
      <point x="230" y="326"/>
    </contour>
    <contour>
      <point x="322" y="151" type="curve" smooth="yes"/>
      <point x="194" y="151"/>
      <point x="112" y="224"/>
      <point x="112" y="316" type="curve" smooth="yes"/>
      <point x="112" y="409"/>
      <point x="194" y="480"/>
      <point x="322" y="480" type="curve" smooth="yes"/>
      <point x="451" y="480"/>
      <point x="535" y="409"/>
      <point x="535" y="316" type="curve" smooth="yes"/>
      <point x="535" y="224"/>
      <point x="451" y="151"/>
    </contour>
    <contour>
      <point x="573" y="436" type="curve" smooth="yes"/>
      <point x="472" y="365" type="line" smooth="yes"/>
      <point x="417" y="326"/>
      <point x="365" y="400"/>
      <point x="420" y="439" type="curve" smooth="yes"/>
      <point x="521" y="510" type="line" smooth="yes"/>
      <point x="576" y="549"/>
      <point x="628" y="475"/>
    </contour>
    <contour>
      <point x="74" y="195" type="curve" smooth="yes"/>
      <point x="175" y="266" type="line" smooth="yes"/>
      <point x="230" y="305"/>
      <point x="282" y="231"/>
      <point x="227" y="192" type="curve" smooth="yes"/>
      <point x="126" y="121" type="line" smooth="yes"/>
      <point x="71" y="82"/>
      <point x="19" y="156"/>
    </contour>
    <contour>
      <point x="472" y="266" type="curve" smooth="yes"/>
      <point x="573" y="195" type="line" smooth="yes"/>
      <point x="628" y="156"/>
      <point x="576" y="82"/>
      <point x="521" y="121" type="curve" smooth="yes"/>
      <point x="420" y="192" type="line" smooth="yes"/>
      <point x="365" y="231"/>
      <point x="417" y="305"/>
    </contour>
  </outline>
</glyph>
<glyph name="section" format="2">
  <advance width="505"/>
  <unicode hex="00A7"/>
  <outline>
    <contour>
      <point x="302" y="405" type="curve" smooth="yes"/>
      <point x="229" y="399"/>
      <point x="184" y="402"/>
      <point x="146" y="402" type="curve" smooth="yes"/>
      <point x="96" y="402"/>
      <point x="46" y="390"/>
      <point x="41" y="362" type="curve" smooth="yes"/>
      <point x="38" y="346"/>
      <point x="117" y="316"/>
      <point x="135" y="308" type="curve" smooth="yes"/>
      <point x="224" y="270"/>
      <point x="288" y="234"/>
      <point x="288" y="161" type="curve" smooth="yes"/>
      <point x="288" y="99"/>
      <point x="225" y="42"/>
      <point x="83" y="39" type="curve" smooth="yes"/>
      <point x="15" y="38"/>
      <point x="14" y="128"/>
      <point x="81" y="129" type="curve" smooth="yes"/>
      <point x="120" y="130"/>
      <point x="198" y="144"/>
      <point x="198" y="161" type="curve" smooth="yes"/>
      <point x="198" y="184"/>
      <point x="127" y="214"/>
      <point x="99" y="226" type="curve" smooth="yes"/>
      <point x="5" y="267"/>
      <point x="-62" y="297"/>
      <point x="-47" y="378" type="curve" smooth="yes"/>
      <point x="-35" y="445"/>
      <point x="29" y="492"/>
      <point x="146" y="492" type="curve" smooth="yes"/>
      <point x="182" y="492"/>
      <point x="227" y="489"/>
      <point x="294" y="495" type="curve" smooth="yes"/>
      <point x="361" y="501"/>
      <point x="369" y="411"/>
    </contour>
    <contour>
      <point x="37" y="24" type="curve" smooth="yes"/>
      <point x="56" y="5"/>
      <point x="83" y="-1"/>
      <point x="110" y="-1" type="curve" smooth="yes"/>
      <point x="165" y="-1"/>
      <point x="259" y="38"/>
      <point x="265" y="66" type="curve" smooth="yes"/>
      <point x="266" y="70"/>
      <point x="170" y="96"/>
      <point x="163" y="97" type="curve" smooth="yes"/>
      <point x="50" y="127"/>
      <point x="-24" y="156"/>
      <point x="-24" y="233" type="curve" smooth="yes"/>
      <point x="-24" y="290"/>
      <point x="28" y="351"/>
      <point x="205" y="379" type="curve" smooth="yes"/>
      <point x="271" y="390"/>
      <point x="286" y="301"/>
      <point x="219" y="291" type="curve" smooth="yes"/>
      <point x="159" y="281"/>
      <point x="66" y="253"/>
      <point x="66" y="233" type="curve" smooth="yes"/>
      <point x="66" y="216"/>
      <point x="160" y="191"/>
      <point x="185" y="185" type="curve" smooth="yes"/>
      <point x="301" y="156"/>
      <point x="370" y="126"/>
      <point x="353" y="46" type="curve" smooth="yes"/>
      <point x="339" y="-15"/>
      <point x="232" y="-91"/>
      <point x="110" y="-91" type="curve" smooth="yes"/>
      <point x="57" y="-91"/>
      <point x="8" y="-75"/>
      <point x="-27" y="-38" type="curve" smooth="yes"/>
      <point x="-74" y="10"/>
      <point x="-9" y="73"/>
    </contour>
  </outline>
</glyph>
<glyph name="dieresis" format="2">
  <advance width="577"/>
  <unicode hex="00A8"/>
  <outline>
    <contour>
      <point x="66" y="396" type="curve" smooth="yes"/>
      <point x="-22" y="404"/>
      <point x="-23" y="506"/>
      <point x="65" y="517" type="curve" smooth="yes"/>
      <point x="132" y="525"/>
      <point x="142" y="435"/>
      <point x="75" y="427" type="curve" smooth="yes"/>
      <point x="73" y="427"/>
      <point x="71" y="486"/>
      <point x="74" y="486" type="curve" smooth="yes"/>
      <point x="141" y="480"/>
      <point x="133" y="390"/>
    </contour>
    <contour>
      <point x="286" y="396" type="curve" smooth="yes"/>
      <point x="198" y="404"/>
      <point x="197" y="506"/>
      <point x="285" y="517" type="curve" smooth="yes"/>
      <point x="352" y="525"/>
      <point x="362" y="435"/>
      <point x="295" y="427" type="curve" smooth="yes"/>
      <point x="293" y="427"/>
      <point x="291" y="486"/>
      <point x="294" y="486" type="curve" smooth="yes"/>
      <point x="361" y="480"/>
      <point x="353" y="390"/>
    </contour>
  </outline>
</glyph>
<glyph name="copyright" format="2">
  <advance width="803"/>
  <unicode hex="00A9"/>
  <outline>
    <contour>
      <point x="383" y="284" type="curve" smooth="yes"/>
      <point x="310" y="288"/>
      <point x="225" y="274"/>
      <point x="225" y="231" type="curve" smooth="yes"/>
      <point x="225" y="190"/>
      <point x="299" y="189"/>
      <point x="369" y="218" type="curve" smooth="yes"/>
      <point x="431" y="243"/>
      <point x="466" y="160"/>
      <point x="403" y="134" type="curve" smooth="yes"/>
      <point x="240" y="68"/>
      <point x="135" y="136"/>
      <point x="135" y="231" type="curve" smooth="yes"/>
      <point x="135" y="324"/>
      <point x="229" y="383"/>
      <point x="389" y="374" type="curve" smooth="yes"/>
      <point x="456" y="370"/>
      <point x="451" y="280"/>
    </contour>
    <contour>
      <point x="260" y="-4" type="curve" smooth="yes"/>
      <point x="183" y="-13"/>
      <point x="127" y="-7"/>
      <point x="85" y="14" type="curve" smooth="yes"/>
      <point x="-8" y="60"/>
      <point x="-63" y="140"/>
      <point x="-63" y="231" type="curve" smooth="yes"/>
      <point x="-63" y="378"/>
      <point x="78" y="491"/>
      <point x="286" y="491" type="curve" smooth="yes"/>
      <point x="493" y="491"/>
      <point x="626" y="378"/>
      <point x="626" y="231" type="curve" smooth="yes"/>
      <point x="626" y="140"/>
      <point x="574" y="61"/>
      <point x="484" y="14" type="curve" smooth="yes"/>
      <point x="437" y="-10"/>
      <point x="395" y="-13"/>
      <point x="362" y="-2" type="curve" smooth="yes"/>
      <point x="298" y="20"/>
      <point x="326" y="105"/>
      <point x="390" y="84" type="curve" smooth="yes"/>
      <point x="404" y="79"/>
      <point x="424" y="84"/>
      <point x="442" y="94" type="curve" smooth="yes"/>
      <point x="500" y="124"/>
      <point x="536" y="172"/>
      <point x="536" y="231" type="curve" smooth="yes"/>
      <point x="536" y="334"/>
      <point x="431" y="401"/>
      <point x="286" y="401" type="curve" smooth="yes"/>
      <point x="141" y="401"/>
      <point x="27" y="333"/>
      <point x="27" y="231" type="curve" smooth="yes"/>
      <point x="27" y="172"/>
      <point x="66" y="124"/>
      <point x="125" y="94" type="curve" smooth="yes"/>
      <point x="153" y="81"/>
      <point x="197" y="79"/>
      <point x="250" y="86" type="curve" smooth="yes"/>
      <point x="316" y="94"/>
      <point x="327" y="5"/>
    </contour>
  </outline>
</glyph>
<glyph name="registered" format="2">
  <advance width="644"/>
  <unicode hex="00AE"/>
  <outline>
    <contour>
      <point x="160" y="81" type="curve" smooth="yes"/>
      <point x="5" y="89"/>
      <point x="-87" y="169"/>
      <point x="-87" y="272" type="curve" smooth="yes"/>
      <point x="-87" y="395"/>
      <point x="29" y="491"/>
      <point x="202" y="491" type="curve" smooth="yes"/>
      <point x="375" y="491"/>
      <point x="491" y="395"/>
      <point x="491" y="272" type="curve" smooth="yes"/>
      <point x="491" y="167"/>
      <point x="415" y="90"/>
      <point x="308" y="82" type="curve" smooth="yes"/>
      <point x="241" y="77"/>
      <point x="234" y="167"/>
      <point x="302" y="172" type="curve" smooth="yes"/>
      <point x="361" y="176"/>
      <point x="401" y="213"/>
      <point x="401" y="272" type="curve" smooth="yes"/>
      <point x="401" y="350"/>
      <point x="312" y="401"/>
      <point x="202" y="401" type="curve" smooth="yes"/>
      <point x="92" y="401"/>
      <point x="3" y="350"/>
      <point x="3" y="272" type="curve" smooth="yes"/>
      <point x="3" y="212"/>
      <point x="73" y="175"/>
      <point x="164" y="171" type="curve" smooth="yes"/>
      <point x="232" y="168"/>
      <point x="227" y="78"/>
    </contour>
    <contour>
      <point x="86" y="204" type="curve" smooth="yes"/>
      <point x="86" y="238"/>
      <point x="86" y="265"/>
      <point x="86" y="289" type="curve" smooth="yes"/>
      <point x="86" y="355"/>
      <point x="123" y="389"/>
      <point x="197" y="389" type="curve" smooth="yes"/>
      <point x="276" y="389"/>
      <point x="303" y="327"/>
      <point x="292" y="274" type="curve" smooth="yes"/>
      <point x="281" y="215"/>
      <point x="240" y="199"/>
      <point x="217" y="197" type="curve" smooth="yes"/>
      <point x="141" y="190"/>
      <point x="151" y="332"/>
      <point x="286" y="357" type="curve" smooth="yes"/>
      <point x="339" y="366"/>
      <point x="380" y="360"/>
      <point x="331" y="192" type="curve" smooth="yes"/>
      <point x="313" y="127"/>
      <point x="226" y="152"/>
      <point x="245" y="216" type="curve" smooth="yes"/>
      <point x="247" y="224"/>
      <point x="304" y="269"/>
      <point x="302" y="269" type="curve" smooth="yes"/>
      <point x="300" y="268"/>
      <point x="207" y="287"/>
      <point x="209" y="287" type="curve" smooth="yes"/>
      <point x="210" y="287"/>
      <point x="203" y="289"/>
      <point x="204" y="292" type="curve" smooth="yes"/>
      <point x="205" y="298"/>
      <point x="206" y="299"/>
      <point x="197" y="299" type="curve" smooth="yes"/>
      <point x="183" y="299"/>
      <point x="176" y="302"/>
      <point x="176" y="289" type="curve" smooth="yes"/>
      <point x="176" y="254"/>
      <point x="176" y="227"/>
      <point x="176" y="204" type="curve" smooth="yes"/>
      <point x="176" y="137"/>
      <point x="86" y="137"/>
    </contour>
  </outline>
</glyph>
<glyph name="degree" format="2">
  <advance width="532"/>
  <unicode hex="00B0"/>
  <outline>
    <contour>
      <point x="118" y="198" type="curve" smooth="yes"/>
      <point x="3" y="198"/>
      <point x="-60" y="256"/>
      <point x="-60" y="331" type="curve" smooth="yes"/>
      <point x="-60" y="421"/>
      <point x="20" y="492"/>
      <point x="145" y="492" type="curve" smooth="yes"/>
      <point x="271" y="492"/>
      <point x="353" y="421"/>
      <point x="353" y="331" type="curve" smooth="yes"/>
      <point x="353" y="249"/>
      <point x="298" y="198"/>
      <point x="233" y="198" type="curve" smooth="yes"/>
      <point x="166" y="198"/>
      <point x="166" y="288"/>
      <point x="233" y="288" type="curve" smooth="yes"/>
      <point x="253" y="288"/>
      <point x="263" y="306"/>
      <point x="263" y="331" type="curve" smooth="yes"/>
      <point x="263" y="376"/>
      <point x="208" y="402"/>
      <point x="145" y="402" type="curve" smooth="yes"/>
      <point x="82" y="402"/>
      <point x="30" y="376"/>
      <point x="30" y="331" type="curve" smooth="yes"/>
      <point x="30" y="301"/>
      <point x="71" y="288"/>
      <point x="118" y="288" type="curve" smooth="yes"/>
      <point x="186" y="288"/>
      <point x="186" y="198"/>
    </contour>
  </outline>
</glyph>
<glyph name="plusminus" format="2">
  <advance width="540"/>
  <unicode hex="00B1"/>
  <outline>
    <contour>
      <point x="179" y="418" type="curve" smooth="yes"/>
      <point x="241" y="366"/>
      <point x="254" y="271"/>
      <point x="191" y="131" type="curve" smooth="yes"/>
      <point x="164" y="69"/>
      <point x="81" y="106"/>
      <point x="109" y="167" type="curve" smooth="yes"/>
      <point x="144" y="247"/>
      <point x="157" y="319"/>
      <point x="121" y="348" type="curve" smooth="yes"/>
      <point x="69" y="391"/>
      <point x="126" y="461"/>
    </contour>
    <contour>
      <point x="349" y="214" type="curve" smooth="yes"/>
      <point x="157" y="176"/>
      <point x="23" y="179"/>
      <point x="-59" y="217" type="curve" smooth="yes"/>
      <point x="-120" y="246"/>
      <point x="-82" y="327"/>
      <point x="-21" y="299" type="curve" smooth="yes"/>
      <point x="47" y="267"/>
      <point x="173" y="271"/>
      <point x="331" y="302" type="curve" smooth="yes"/>
      <point x="397" y="315"/>
      <point x="415" y="227"/>
    </contour>
    <contour>
      <point x="349" y="2" type="curve" smooth="yes"/>
      <point x="157" y="-36"/>
      <point x="23" y="-33"/>
      <point x="-59" y="5" type="curve" smooth="yes"/>
      <point x="-120" y="34"/>
      <point x="-82" y="115"/>
      <point x="-21" y="87" type="curve" smooth="yes"/>
      <point x="47" y="55"/>
      <point x="173" y="59"/>
      <point x="331" y="90" type="curve" smooth="yes"/>
      <point x="397" y="103"/>
      <point x="415" y="15"/>
    </contour>
  </outline>
</glyph>
<glyph name="acute" format="2">
  <advance width="408"/>
  <unicode hex="00B4"/>
  <outline>
    <contour>
      <point x="162" y="458" type="curve" smooth="yes"/>
      <point x="137" y="437"/>
      <point x="114" y="418"/>
      <point x="105" y="409" type="curve" smooth="yes"/>
      <point x="60" y="359"/>
      <point x="-7" y="419"/>
      <point x="39" y="469" type="curve" smooth="yes"/>
      <point x="50" y="482"/>
      <point x="70" y="499"/>
      <point x="104" y="528" type="curve" smooth="yes"/>
      <point x="156" y="571"/>
      <point x="214" y="502"/>
    </contour>
  </outline>
</glyph>
<glyph name="mu.math" format="2">
  <advance width="568"/>
  <unicode hex="00B5"/>
  <outline>
    <contour>
      <point x="57" y="-5" type="curve" smooth="yes"/>
      <point x="57" y="397" type="line" smooth="yes"/>
      <point x="57" y="465"/>
      <point x="147" y="465"/>
      <point x="147" y="397" type="curve" smooth="yes"/>
      <point x="147" y="-5" type="line" smooth="yes"/>
      <point x="147" y="-72"/>
      <point x="57" y="-72"/>
    </contour>
    <contour>
      <point x="503" y="397" type="curve" smooth="yes"/>
      <point x="503" y="102" type="line" smooth="yes"/>
      <point x="503" y="34"/>
      <point x="413" y="35"/>
      <point x="413" y="102" type="curve" smooth="yes"/>
      <point x="413" y="397" type="line" smooth="yes"/>
      <point x="413" y="465"/>
      <point x="503" y="465"/>
    </contour>
    <contour>
      <point x="147" y="220" type="curve" smooth="yes"/>
      <point x="147" y="165"/>
      <point x="191" y="142"/>
      <point x="258" y="142" type="curve" smooth="yes"/>
      <point x="338" y="142"/>
      <point x="413" y="181"/>
      <point x="413" y="232" type="curve" smooth="yes"/>
      <point x="413" y="300"/>
      <point x="503" y="300"/>
      <point x="503" y="232" type="curve" smooth="yes"/>
      <point x="503" y="138"/>
      <point x="406" y="52"/>
      <point x="258" y="52" type="curve" smooth="yes"/>
      <point x="134" y="52"/>
      <point x="57" y="118"/>
      <point x="57" y="220" type="curve" smooth="yes"/>
      <point x="57" y="288"/>
      <point x="147" y="288"/>
    </contour>
  </outline>
</glyph>
<glyph name="cedilla" format="2">
  <advance width="416"/>
  <unicode hex="00B8"/>
  <outline>
    <contour>
      <point x="109" y="18" type="curve" smooth="yes"/>
      <point x="109" y="1"/>
      <point x="104" y="-11"/>
      <point x="123" y="-15" type="curve" smooth="yes"/>
      <point x="193" y="-29"/>
      <point x="211" y="-69"/>
      <point x="211" y="-102" type="curve" smooth="yes"/>
      <point x="211" y="-175"/>
      <point x="97" y="-238"/>
      <point x="-1" y="-152" type="curve" smooth="yes"/>
      <point x="-51" y="-107"/>
      <point x="8" y="-40"/>
      <point x="59" y="-84" type="curve" smooth="yes"/>
      <point x="71" y="-95"/>
      <point x="121" y="-111"/>
      <point x="121" y="-102" type="curve" smooth="yes"/>
      <point x="121" y="-101"/>
      <point x="109" y="-104"/>
      <point x="107" y="-103" type="curve" smooth="yes"/>
      <point x="35" y="-90"/>
      <point x="19" y="-45"/>
      <point x="19" y="18" type="curve" smooth="yes"/>
      <point x="19" y="86"/>
      <point x="109" y="85"/>
    </contour>
  </outline>
</glyph>
<glyph name="ordmasculine" format="2">
  <advance width="492"/>
  <unicode hex="00BA"/>
  <outline>
    <contour>
      <point x="297" y="87" type="curve" smooth="yes"/>
      <point x="125" y="45"/>
      <point x="28" y="54"/>
      <point x="-23" y="96" type="curve" smooth="yes"/>
      <point x="-75" y="140"/>
      <point x="-17" y="209"/>
      <point x="35" y="166" type="curve" smooth="yes"/>
      <point x="67" y="139"/>
      <point x="168" y="148"/>
      <point x="275" y="175" type="curve" smooth="yes"/>
      <point x="341" y="191"/>
      <point x="362" y="103"/>
    </contour>
    <contour>
      <point x="218" y="321" type="curve" smooth="yes"/>
      <point x="226" y="323"/>
      <point x="223" y="326"/>
      <point x="222" y="335" type="curve" smooth="yes"/>
      <point x="216" y="371"/>
      <point x="181" y="402"/>
      <point x="126" y="402" type="curve" smooth="yes"/>
      <point x="83" y="402"/>
      <point x="26" y="378"/>
      <point x="31" y="350" type="curve" smooth="yes"/>
      <point x="32" y="337"/>
      <point x="92" y="324"/>
      <point x="110" y="321" type="curve" smooth="yes"/>
      <point x="177" y="311"/>
      <point x="163" y="222"/>
      <point x="96" y="233" type="curve" smooth="yes"/>
      <point x="10" y="246"/>
      <point x="-49" y="277"/>
      <point x="-59" y="336" type="curve" smooth="yes"/>
      <point x="-70" y="414"/>
      <point x="8" y="492"/>
      <point x="126" y="492" type="curve" smooth="yes"/>
      <point x="235" y="492"/>
      <point x="298" y="421"/>
      <point x="310" y="351" type="curve" smooth="yes"/>
      <point x="322" y="289"/>
      <point x="300" y="248"/>
      <point x="238" y="233" type="curve" smooth="yes"/>
      <point x="173" y="218"/>
      <point x="152" y="305"/>
    </contour>
  </outline>
</glyph>
<glyph name="onehalf" format="2">
  <advance width="940"/>
  <unicode hex="00BD"/>
  <outline>
    <contour>
      <point x="-47" y="472" type="curve" smooth="yes"/>
      <point x="104" y="494"/>
      <point x="115" y="446"/>
      <point x="115" y="381" type="curve" smooth="yes"/>
      <point x="115" y="312"/>
      <point x="115" y="257"/>
      <point x="115" y="211" type="curve" smooth="yes"/>
      <point x="115" y="144"/>
      <point x="25" y="144"/>
      <point x="25" y="211" type="curve" smooth="yes"/>
      <point x="25" y="279"/>
      <point x="25" y="334"/>
      <point x="25" y="381" type="curve" smooth="yes"/>
      <point x="25" y="393"/>
      <point x="-5" y="387"/>
      <point x="-33" y="382" type="curve" smooth="yes"/>
      <point x="-100" y="373"/>
      <point x="-113" y="462"/>
    </contour>
    <contour>
      <point x="526" y="413" type="curve" smooth="yes"/>
      <point x="150" y="-11" type="line" smooth="yes"/>
      <point x="105" y="-61"/>
      <point x="38" y="-2"/>
      <point x="82" y="49" type="curve" smooth="yes"/>
      <point x="458" y="473" type="line" smooth="yes"/>
      <point x="503" y="523"/>
      <point x="570" y="464"/>
    </contour>
    <contour>
      <point x="722" y="-19" type="curve" smooth="yes"/>
      <point x="683" y="-19"/>
      <point x="652" y="-19"/>
      <point x="626" y="-19" type="curve" smooth="yes"/>
      <point x="455" y="-19"/>
      <point x="428" y="49"/>
      <point x="557" y="120" type="curve" smooth="yes"/>
      <point x="577" y="131"/>
      <point x="663" y="182"/>
      <point x="663" y="190" type="curve" smooth="yes"/>
      <point x="663" y="217"/>
      <point x="561" y="214"/>
      <point x="521" y="197" type="curve" smooth="yes"/>
      <point x="458" y="170"/>
      <point x="423" y="253"/>
      <point x="485" y="279" type="curve" smooth="yes"/>
      <point x="620" y="337"/>
      <point x="753" y="278"/>
      <point x="753" y="190" type="curve" smooth="yes"/>
      <point x="753" y="143"/>
      <point x="722" y="109"/>
      <point x="601" y="42" type="curve" smooth="yes"/>
      <point x="594" y="38"/>
      <point x="617" y="71"/>
      <point x="626" y="71" type="curve" smooth="yes"/>
      <point x="665" y="71"/>
      <point x="696" y="71"/>
      <point x="722" y="71" type="curve" smooth="yes"/>
      <point x="790" y="71"/>
      <point x="790" y="-19"/>
    </contour>
  </outline>
</glyph>
<glyph name="threequarters" format="2">
  <advance width="960"/>
  <unicode hex="00BE"/>
  <outline>
    <contour>
      <point x="587" y="413" type="curve" smooth="yes"/>
      <point x="211" y="-11" type="line" smooth="yes"/>
      <point x="166" y="-61"/>
      <point x="99" y="-2"/>
      <point x="143" y="49" type="curve" smooth="yes"/>
      <point x="519" y="473" type="line" smooth="yes"/>
      <point x="564" y="523"/>
      <point x="631" y="464"/>
    </contour>
    <contour>
      <point x="760" y="40" type="curve" smooth="yes"/>
      <point x="687" y="40"/>
      <point x="627" y="40"/>
      <point x="577" y="40" type="curve" smooth="yes"/>
      <point x="471" y="40"/>
      <point x="437" y="102"/>
      <point x="490" y="169" type="curve" smooth="yes"/>
      <point x="508" y="193"/>
      <point x="517" y="204"/>
      <point x="544" y="238" type="curve" smooth="yes"/>
      <point x="613" y="326"/>
      <point x="727" y="303"/>
      <point x="727" y="203" type="curve" smooth="yes"/>
      <point x="727" y="147"/>
      <point x="727" y="72"/>
      <point x="727" y="19" type="curve" smooth="yes"/>
      <point x="727" y="-49"/>
      <point x="637" y="-48"/>
      <point x="637" y="19" type="curve" smooth="yes"/>
      <point x="637" y="98"/>
      <point x="637" y="165"/>
      <point x="637" y="203" type="curve" smooth="yes"/>
      <point x="637" y="207"/>
      <point x="617" y="186"/>
      <point x="614" y="182" type="curve" smooth="yes"/>
      <point x="587" y="148"/>
      <point x="580" y="139"/>
      <point x="560" y="113" type="curve" smooth="yes"/>
      <point x="558" y="110"/>
      <point x="572" y="130"/>
      <point x="577" y="130" type="curve" smooth="yes"/>
      <point x="651" y="130"/>
      <point x="711" y="130"/>
      <point x="760" y="130" type="curve" smooth="yes"/>
      <point x="828" y="130"/>
      <point x="828" y="40"/>
    </contour>
    <contour>
      <point x="2" y="269" type="curve" smooth="yes"/>
      <point x="37" y="260"/>
      <point x="156" y="254"/>
      <point x="156" y="273" type="curve" smooth="yes"/>
      <point x="156" y="280"/>
      <point x="104" y="287"/>
      <point x="87" y="288" type="curve" smooth="yes"/>
      <point x="-28" y="293"/>
      <point x="-33" y="356"/>
      <point x="75" y="419" type="curve" smooth="yes"/>
      <point x="81" y="422"/>
      <point x="135" y="395"/>
      <point x="130" y="395" type="curve" smooth="yes"/>
      <point x="64" y="395"/>
      <point x="24" y="395"/>
      <point x="-8" y="395" type="curve" smooth="yes"/>
      <point x="-76" y="395"/>
      <point x="-75" y="485"/>
      <point x="-8" y="485" type="curve" smooth="yes"/>
      <point x="40" y="485"/>
      <point x="86" y="485"/>
      <point x="130" y="485" type="curve" smooth="yes"/>
      <point x="242" y="485"/>
      <point x="248" y="415"/>
      <point x="121" y="341" type="curve" smooth="yes"/>
      <point x="116" y="338"/>
      <point x="86" y="378"/>
      <point x="91" y="378" type="curve" smooth="yes"/>
      <point x="209" y="373"/>
      <point x="246" y="321"/>
      <point x="246" y="273" type="curve" smooth="yes"/>
      <point x="246" y="191"/>
      <point x="129" y="142"/>
      <point x="-22" y="183" type="curve" smooth="yes"/>
      <point x="-87" y="200"/>
      <point x="-64" y="287"/>
    </contour>
  </outline>
</glyph>
<glyph name="AE" format="2">
  <advance width="844"/>
  <unicode hex="00C6"/>
  <outline>
    <contour>
      <point x="446" y="182" type="curve" smooth="yes"/>
      <point x="162" y="182" type="line" smooth="yes"/>
      <point x="95" y="182"/>
      <point x="95" y="272"/>
      <point x="162" y="272" type="curve" smooth="yes"/>
      <point x="446" y="272" type="line" smooth="yes"/>
      <point x="514" y="272"/>
      <point x="514" y="182"/>
    </contour>
    <contour>
      <point x="446" y="366" type="curve" smooth="yes"/>
      <point x="724" y="366" type="line" smooth="yes"/>
      <point x="792" y="366"/>
      <point x="792" y="276"/>
      <point x="724" y="276" type="curve" smooth="yes"/>
      <point x="446" y="276" type="line" smooth="yes"/>
      <point x="379" y="276"/>
      <point x="379" y="366"/>
    </contour>
    <contour>
      <point x="744" y="477" type="curve" smooth="yes"/>
      <point x="359" y="477" type="line"/>
      <point x="396" y="497" type="line"/>
      <point x="112" y="77" type="line" smooth="yes"/>
      <point x="74" y="21"/>
      <point x="0" y="71"/>
      <point x="38" y="127" type="curve" smooth="yes"/>
      <point x="322" y="547" type="line" smooth="yes"/>
      <point x="330" y="560"/>
      <point x="344" y="567"/>
      <point x="359" y="567" type="curve" smooth="yes"/>
      <point x="744" y="567" type="line" smooth="yes"/>
      <point x="812" y="567"/>
      <point x="812" y="477"/>
    </contour>
    <contour>
      <point x="744" y="60" type="curve" smooth="yes"/>
      <point x="446" y="60" type="line" smooth="yes"/>
      <point x="421" y="60"/>
      <point x="401" y="80"/>
      <point x="401" y="105" type="curve" smooth="yes"/>
      <point x="401" y="522" type="line" smooth="yes"/>
      <point x="401" y="590"/>
      <point x="491" y="590"/>
      <point x="491" y="522" type="curve" smooth="yes"/>
      <point x="491" y="105" type="line"/>
      <point x="446" y="150" type="line"/>
      <point x="744" y="150" type="line" smooth="yes"/>
      <point x="812" y="150"/>
      <point x="812" y="60"/>
    </contour>
  </outline>
</glyph>
<glyph name="multiply" format="2">
  <advance width="517"/>
  <unicode hex="00D7"/>
  <outline>
    <contour>
      <point x="4" y="354" type="curve" smooth="yes"/>
      <point x="166" y="319"/>
      <point x="274" y="239"/>
      <point x="324" y="125" type="curve" smooth="yes"/>
      <point x="351" y="63"/>
      <point x="269" y="27"/>
      <point x="242" y="89" type="curve" smooth="yes"/>
      <point x="202" y="179"/>
      <point x="114" y="239"/>
      <point x="-14" y="266" type="curve" smooth="yes"/>
      <point x="-80" y="280"/>
      <point x="-62" y="368"/>
    </contour>
    <contour>
      <point x="309" y="273" type="curve" smooth="yes"/>
      <point x="164" y="171"/>
      <point x="66" y="102"/>
      <point x="21" y="70" type="curve" smooth="yes"/>
      <point x="-34" y="31"/>
      <point x="-86" y="105"/>
      <point x="-31" y="144" type="curve" smooth="yes"/>
      <point x="14" y="176"/>
      <point x="112" y="245"/>
      <point x="257" y="347" type="curve" smooth="yes"/>
      <point x="312" y="386"/>
      <point x="364" y="312"/>
    </contour>
  </outline>
</glyph>
<glyph name="eth" format="2">
  <advance width="551"/>
  <unicode hex="00F0"/>
  <outline>
    <contour>
      <point x="191" y="511" type="curve" smooth="yes"/>
      <point x="195" y="493"/>
      <point x="203" y="480"/>
      <point x="218" y="470" type="curve" smooth="yes"/>
      <point x="328" y="394"/>
      <point x="392" y="304"/>
      <point x="392" y="180" type="curve" smooth="yes"/>
      <point x="392" y="72"/>
      <point x="304" y="-29"/>
      <point x="150" y="-29" type="curve" smooth="yes"/>
      <point x="10" y="-29"/>
      <point x="-81" y="51"/>
      <point x="-81" y="158" type="curve" smooth="yes"/>
      <point x="-81" y="264"/>
      <point x="-3" y="333"/>
      <point x="149" y="354" type="curve" smooth="yes"/>
      <point x="300" y="375"/>
      <point x="430" y="309"/>
      <point x="489" y="261" type="curve" smooth="yes"/>
      <point x="541" y="218"/>
      <point x="483" y="148"/>
      <point x="431" y="191" type="curve" smooth="yes"/>
      <point x="386" y="229"/>
      <point x="280" y="281"/>
      <point x="161" y="264" type="curve" smooth="yes"/>
      <point x="69" y="252"/>
      <point x="9" y="222"/>
      <point x="9" y="158" type="curve" smooth="yes"/>
      <point x="9" y="96"/>
      <point x="69" y="61"/>
      <point x="150" y="61" type="curve" smooth="yes"/>
      <point x="244" y="61"/>
      <point x="302" y="114"/>
      <point x="302" y="180" type="curve" smooth="yes"/>
      <point x="302" y="274"/>
      <point x="250" y="338"/>
      <point x="166" y="396" type="curve" smooth="yes"/>
      <point x="135" y="418"/>
      <point x="113" y="449"/>
      <point x="103" y="489" type="curve" smooth="yes"/>
      <point x="87" y="555"/>
      <point x="175" y="576"/>
    </contour>
    <contour>
      <point x="323" y="422" type="curve" smooth="yes"/>
      <point x="292" y="431"/>
      <point x="189" y="399"/>
      <point x="81" y="354" type="curve" smooth="yes"/>
      <point x="19" y="327"/>
      <point x="-16" y="410"/>
      <point x="47" y="436" type="curve" smooth="yes"/>
      <point x="214" y="507"/>
      <point x="301" y="522"/>
      <point x="349" y="508" type="curve" smooth="yes"/>
      <point x="414" y="489"/>
      <point x="388" y="403"/>
    </contour>
  </outline>
</glyph>
<glyph name="ring" format="2">
  <advance width="420"/>
  <unicode hex="02DA"/>
  <outline>
    <contour>
      <point x="17" y="367" type="curve" smooth="yes"/>
      <point x="-21" y="385"/>
      <point x="-43" y="419"/>
      <point x="-43" y="458" type="curve" smooth="yes"/>
      <point x="-43" y="512"/>
      <point x="3" y="558"/>
      <point x="89" y="558" type="curve" smooth="yes"/>
      <point x="162" y="558"/>
      <point x="211" y="529"/>
      <point x="234" y="500" type="curve" smooth="yes"/>
      <point x="269" y="455"/>
      <point x="248" y="412"/>
      <point x="207" y="402" type="curve" smooth="yes"/>
      <point x="141" y="387"/>
      <point x="121" y="475"/>
      <point x="187" y="490" type="curve" smooth="yes"/>
      <point x="188" y="490"/>
      <point x="164" y="443"/>
      <point x="164" y="444" type="curve" smooth="yes"/>
      <point x="153" y="457"/>
      <point x="123" y="468"/>
      <point x="89" y="468" type="curve" smooth="yes"/>
      <point x="80" y="468"/>
      <point x="47" y="464"/>
      <point x="47" y="458" type="curve" smooth="yes"/>
      <point x="47" y="453"/>
      <point x="50" y="451"/>
      <point x="55" y="449" type="curve" smooth="yes"/>
      <point x="116" y="421"/>
      <point x="79" y="339"/>
    </contour>
  </outline>
</glyph>
<glyph name="tilde" format="2">
  <advance width="565"/>
  <unicode hex="02DC"/>
  <outline>
    <contour>
      <point x="383" y="495" type="curve" smooth="yes"/>
      <point x="343" y="411"/>
      <point x="302" y="372"/>
      <point x="234" y="372" type="curve" smooth="yes"/>
      <point x="136" y="372"/>
      <point x="136" y="448"/>
      <point x="87" y="448" type="curve" smooth="yes"/>
      <point x="83" y="448"/>
      <point x="65" y="476"/>
      <point x="67" y="475" type="curve" smooth="yes"/>
      <point x="122" y="436"/>
      <point x="70" y="362"/>
      <point x="15" y="401" type="curve" smooth="yes"/>
      <point x="-47" y="444"/>
      <point x="-16" y="538"/>
      <point x="87" y="538" type="curve" smooth="yes"/>
      <point x="183" y="538"/>
      <point x="185" y="462"/>
      <point x="234" y="462" type="curve" smooth="yes"/>
      <point x="266" y="462"/>
      <point x="283" y="494"/>
      <point x="301" y="533" type="curve" smooth="yes"/>
      <point x="330" y="594"/>
      <point x="412" y="556"/>
    </contour>
  </outline>
</glyph>
<glyph name="endash" format="2">
  <advance width="555"/>
  <unicode hex="2013"/>
  <outline>
    <contour>
      <point x="371" y="186" type="curve" smooth="yes"/>
      <point x="295" y="167"/>
      <point x="230" y="164"/>
      <point x="159" y="164" type="curve" smooth="yes"/>
      <point x="66" y="164"/>
      <point x="18" y="170"/>
      <point x="-13" y="195" type="curve" smooth="yes"/>
      <point x="-66" y="236"/>
      <point x="-10" y="307"/>
      <point x="43" y="265" type="curve" smooth="yes"/>
      <point x="55" y="255"/>
      <point x="121" y="254"/>
      <point x="159" y="254" type="curve" smooth="yes"/>
      <point x="222" y="254"/>
      <point x="281" y="257"/>
      <point x="349" y="274" type="curve" smooth="yes"/>
      <point x="415" y="290"/>
      <point x="436" y="203"/>
    </contour>
  </outline>
</glyph>
<glyph name="ellipsis" format="2">
  <advance width="780"/>
  <unicode hex="2026"/>
  <outline>
    <contour>
      <point x="15" y="-26" type="curve" smooth="yes"/>
      <point x="-73" y="-15"/>
      <point x="-72" y="87"/>
      <point x="16" y="95" type="curve" smooth="yes"/>
      <point x="83" y="101"/>
      <point x="91" y="11"/>
      <point x="24" y="5" type="curve" smooth="yes"/>
      <point x="21" y="5"/>
      <point x="23" y="64"/>
      <point x="25" y="64" type="curve" smooth="yes"/>
      <point x="92" y="56"/>
      <point x="82" y="-34"/>
    </contour>
    <contour>
      <point x="275" y="-26" type="curve" smooth="yes"/>
      <point x="187" y="-15"/>
      <point x="188" y="87"/>
      <point x="276" y="95" type="curve" smooth="yes"/>
      <point x="343" y="101"/>
      <point x="351" y="11"/>
      <point x="284" y="5" type="curve" smooth="yes"/>
      <point x="281" y="5"/>
      <point x="283" y="64"/>
      <point x="285" y="64" type="curve" smooth="yes"/>
      <point x="352" y="56"/>
      <point x="342" y="-34"/>
    </contour>
    <contour>
      <point x="535" y="-26" type="curve" smooth="yes"/>
      <point x="447" y="-15"/>
      <point x="448" y="87"/>
      <point x="536" y="95" type="curve" smooth="yes"/>
      <point x="603" y="101"/>
      <point x="611" y="11"/>
      <point x="544" y="5" type="curve" smooth="yes"/>
      <point x="541" y="5"/>
      <point x="543" y="64"/>
      <point x="545" y="64" type="curve" smooth="yes"/>
      <point x="612" y="56"/>
      <point x="602" y="-34"/>
    </contour>
  </outline>
</glyph>
<glyph name="guilsinglleft" format="2">
  <advance width="397"/>
  <unicode hex="2039"/>
  <outline>
    <contour>
      <point x="201" y="277" type="curve" smooth="yes"/>
      <point x="154" y="247"/>
      <point x="157" y="252"/>
      <point x="99" y="214" type="curve" smooth="yes"/>
      <point x="63" y="192"/>
      <point x="45" y="189"/>
      <point x="63" y="157" type="curve" smooth="yes"/>
      <point x="86" y="117"/>
      <point x="157" y="108"/>
      <point x="212" y="102" type="curve" smooth="yes"/>
      <point x="279" y="94"/>
      <point x="269" y="4"/>
      <point x="202" y="12" type="curve" smooth="yes"/>
      <point x="105" y="24"/>
      <point x="25" y="42"/>
      <point x="-15" y="113" type="curve" smooth="yes"/>
      <point x="-60" y="193"/>
      <point x="-37" y="234"/>
      <point x="51" y="290" type="curve" smooth="yes"/>
      <point x="110" y="328"/>
      <point x="107" y="323"/>
      <point x="153" y="353" type="curve" smooth="yes"/>
      <point x="210" y="389"/>
      <point x="258" y="313"/>
    </contour>
  </outline>
</glyph>
<glyph name="fraction" format="2">
  <advance width="568"/>
  <unicode hex="2044"/>
  <outline>
    <contour>
      <point x="412" y="432" type="curve" smooth="yes"/>
      <point x="354" y="378"/>
      <point x="325" y="345"/>
      <point x="296" y="312" type="curve" smooth="yes"/>
      <point x="235" y="243"/>
      <point x="172" y="172"/>
      <point x="111" y="102" type="curve" smooth="yes"/>
      <point x="108" y="99"/>
      <point x="26" y="106"/>
      <point x="28" y="106" type="curve" smooth="yes"/>
      <point x="94" y="119"/>
      <point x="111" y="30"/>
      <point x="44" y="18" type="curve" smooth="yes"/>
      <point x="-28" y="4"/>
      <point x="-45" y="63"/>
      <point x="43" y="162" type="curve" smooth="yes"/>
      <point x="104" y="232"/>
      <point x="167" y="303"/>
      <point x="228" y="372" type="curve" smooth="yes"/>
      <point x="259" y="407"/>
      <point x="290" y="442"/>
      <point x="352" y="498" type="curve" smooth="yes"/>
      <point x="401" y="544"/>
      <point x="462" y="477"/>
    </contour>
  </outline>
</glyph>
<glyph name="four.superior" format="2">
  <advance width="434"/>
  <unicode hex="2074"/>
  <outline>
    <contour>
      <point x="339" y="302" type="curve" smooth="yes"/>
      <point x="275" y="302"/>
      <point x="233" y="316"/>
      <point x="176" y="316" type="curve" smooth="yes"/>
      <point x="54" y="316"/>
      <point x="-13" y="339"/>
      <point x="48" y="418" type="curve" smooth="yes"/>
      <point x="69" y="443"/>
      <point x="86" y="460"/>
      <point x="122" y="495" type="curve" smooth="yes"/>
      <point x="124" y="497"/>
      <point x="212" y="596"/>
      <point x="224" y="495" type="curve" smooth="yes"/>
      <point x="224" y="493"/>
      <point x="224" y="492"/>
      <point x="224" y="490" type="curve" smooth="yes"/>
      <point x="224" y="477"/>
      <point x="206" y="429"/>
      <point x="206" y="408" type="curve" smooth="yes"/>
      <point x="206" y="378"/>
      <point x="206" y="366"/>
      <point x="206" y="355" type="curve" smooth="yes"/>
      <point x="206" y="303"/>
      <point x="206" y="250"/>
      <point x="206" y="211" type="curve" smooth="yes"/>
      <point x="206" y="144"/>
      <point x="116" y="144"/>
      <point x="116" y="211" type="curve" smooth="yes"/>
      <point x="116" y="269"/>
      <point x="116" y="320"/>
      <point x="116" y="355" type="curve" smooth="yes"/>
      <point x="116" y="372"/>
      <point x="116" y="388"/>
      <point x="116" y="408" type="curve" smooth="yes"/>
      <point x="116" y="461"/>
      <point x="134" y="485"/>
      <point x="134" y="490" type="curve"/>
      <point x="134" y="485" type="line"/>
      <point x="134" y="487"/>
      <point x="350" y="597"/>
      <point x="184" y="431" type="curve" smooth="yes"/>
      <point x="153" y="400"/>
      <point x="137" y="385"/>
      <point x="120" y="362" type="curve" smooth="yes"/>
      <point x="117" y="359"/>
      <point x="171" y="406"/>
      <point x="176" y="406" type="curve" smooth="yes"/>
      <point x="241" y="406"/>
      <point x="283" y="392"/>
      <point x="339" y="392" type="curve" smooth="yes"/>
      <point x="407" y="392"/>
      <point x="407" y="302"/>
    </contour>
  </outline>
</glyph>
<glyph name="divisionslash" format="2">
  <advance width="518"/>
  <unicode hex="2215"/>
  <outline>
    <contour>
      <point x="389" y="468" type="curve" smooth="yes"/>
      <point x="349" y="428"/>
      <point x="325" y="401"/>
      <point x="307" y="376" type="curve" smooth="yes"/>
      <point x="234" y="277"/>
      <point x="159" y="176"/>
      <point x="85" y="76" type="curve" smooth="yes"/>
      <point x="71" y="58"/>
      <point x="27" y="-3"/>
      <point x="26" y="-13" type="curve" smooth="yes"/>
      <point x="20" y="-80"/>
      <point x="-69" y="-73"/>
      <point x="-64" y="-5" type="curve" smooth="yes"/>
      <point x="-61" y="30"/>
      <point x="-35" y="64"/>
      <point x="13" y="130" type="curve" smooth="yes"/>
      <point x="87" y="230"/>
      <point x="162" y="331"/>
      <point x="235" y="430" type="curve" smooth="yes"/>
      <point x="255" y="457"/>
      <point x="281" y="488"/>
      <point x="325" y="532" type="curve" smooth="yes"/>
      <point x="373" y="580"/>
      <point x="437" y="516"/>
    </contour>
  </outline>
</glyph>
<glyph name="E" format="2">
  <advance width="558"/>
  <outline>
    <contour>
      <point x="400.83690493880437" y="141.04022360716277" type="curve" smooth="yes"/>
      <point x="387.0582232894203" y="152.64073674697315"/>
      <point x="365.85563353256026" y="157.57359312880715"/>
      <point x="333.044428006689" y="157.57359312880715" type="curve" smooth="yes"/>
      <point x="225.04442965162303" y="157.57359312880715" type="line" smooth="yes"/>
      <point x="122.37204711859087" y="157.57359312880715"/>
      <point x="85.04525036440002" y="202.87474593261697"/>
      <point x="85.03332457665596" y="271.20447678951365" type="curve" smooth="yes"/>
      <point x="85.01555304499357" y="373.0278532803765" type="line" smooth="yes"/>
      <point x="85.00547533743794" y="430.7688645839849"/>
      <point x="136.822371563878" y="479.60512242138304"/>
      <point x="215.00567799183455" y="479.60512242138304" type="curve" smooth="yes"/>
      <point x="340.0056760879757" y="479.60512242138304" type="line" smooth="yes"/>
      <point x="426.74584124977383" y="479.60512242138304"/>
      <point x="465.00443048870795" y="422.47054594533165"/>
      <point x="464.9962947646284" y="375.85628040512273" type="curve" smooth="yes"/>
      <point x="464.9883731385511" y="330.4687060633405"/>
      <point x="428.46213254086143" y="273.53910524340097"/>
      <point x="339.98716407582737" y="273.53910524340097" type="curve" smooth="yes"/>
      <point x="213.9871659949171" y="273.53910524340097" type="line" smooth="yes"/>
      <point x="122.15909600752703" y="273.53910524340097"/>
      <point x="85.00275783217296" y="396.1214039628372"/>
      <point x="84.98149056299808" y="568.19187172015" type="curve" smooth="yes"/>
      <point x="84.97161249612863" y="648.113914027704"/>
      <point x="134.8543919694761" y="681.8376618407357"/>
      <point x="224.9703816030297" y="681.8376618407357" type="curve" smooth="yes"/>
      <point x="332.97037995809563" y="681.8376618407357" type="line" smooth="yes"/>
      <point x="401.0355648106796" y="681.8376618407357"/>
      <point x="441.1663913683193" y="664.2215223293365"/>
      <point x="467.0269615338077" y="640.1568450768217" type="curve" smooth="yes"/>
      <point x="521.9321432591296" y="589.0645656237637"/>
      <point x="453.8091039883855" y="515.8576566566678"/>
      <point x="398.9039222630636" y="566.9499361097259" type="curve" smooth="yes"/>
      <point x="387.6979173989194" y="577.3777375317384"/>
      <point x="362.4646559023603" y="581.8376618407357"/>
      <point x="332.97037995809563" y="581.8376618407357" type="curve" smooth="yes"/>
      <point x="224.9703816030297" y="581.8376618407357" type="line" smooth="yes"/>
      <point x="206.16409675197883" y="581.8376618407357"/>
      <point x="184.97942834772587" y="584.88314370975"/>
      <point x="184.98148979919608" y="568.204231347743" type="curve" smooth="yes"/>
      <point x="184.98526472891993" y="537.6618087171477"/>
      <point x="197.68772914522805" y="373.53910524340097"/>
      <point x="213.9871659949171" y="373.53910524340097" type="curve" smooth="yes"/>
      <point x="339.98716407582737" y="373.53910524340097" type="line" smooth="yes"/>
      <point x="343.83358154477" y="373.53910524340097"/>
      <point x="364.99595189786766" y="373.900525208492"/>
      <point x="364.9962962877154" y="375.8737336972882" type="curve" smooth="yes"/>
      <point x="364.9966499853969" y="377.9002721452407"/>
      <point x="343.7766736065472" y="379.60512242138304"/>
      <point x="340.0056760879757" y="379.60512242138304" type="curve" smooth="yes"/>
      <point x="215.00567799183455" y="379.60512242138304" type="line" smooth="yes"/>
      <point x="211.44866105687555" y="379.60512242138304"/>
      <point x="185.01509302791237" y="375.6722836656361"/>
      <point x="185.0155515219065" y="373.04530657254196" type="curve" smooth="yes"/>
      <point x="185.0333230535689" y="271.2219300816792" type="line" smooth="yes"/>
      <point x="185.03601831505242" y="255.77921923430304"/>
      <point x="201.84018318986807" y="257.57359312880715"/>
      <point x="225.04442965162303" y="257.57359312880715" type="curve" smooth="yes"/>
      <point x="333.044428006689" y="257.57359312880715" type="line" smooth="yes"/>
      <point x="399.01525857816046" y="257.57359312880715"/>
      <point x="437.53839695802077" y="240.86263133957388"/>
      <point x="465.2420749552536" y="217.53842015552772" type="curve" smooth="yes"/>
      <point x="522.6157223665273" y="169.23454264319085"/>
      <point x="458.2105523500781" y="92.7363460948259"/>
    </contour>
  </outline>
</glyph>
<glyph name="grave.cap" format="2">
  <advance width="408"/>
  <outline>
    <contour>
      <point x="97" y="512" type="curve" smooth="yes"/>
      <point x="6" y="587" type="line" smooth="yes"/>
      <point x="-46" y="630"/>
      <point x="12" y="700"/>
      <point x="64" y="657" type="curve" smooth="yes"/>
      <point x="155" y="582" type="line" smooth="yes"/>
      <point x="207" y="539"/>
      <point x="149" y="469"/>
    </contour>
  </outline>
</glyph>
<glyph name="ring.cap" format="2">
  <advance width="420"/>
  <outline>
    <contour>
      <point x="89" y="573" type="curve" smooth="yes"/>
      <point x="104" y="573"/>
      <point x="134" y="577"/>
      <point x="134" y="587" type="curve" smooth="yes"/>
      <point x="134" y="593"/>
      <point x="99" y="598"/>
      <point x="89" y="598" type="curve" smooth="yes"/>
      <point x="78" y="598"/>
      <point x="47" y="594"/>
      <point x="47" y="587" type="curve" smooth="yes"/>
      <point x="47" y="577"/>
      <point x="74" y="573"/>
    </contour>
    <contour>
      <point x="89" y="483" type="curve" smooth="yes"/>
      <point x="4" y="483"/>
      <point x="-43" y="530"/>
      <point x="-43" y="587" type="curve" smooth="yes"/>
      <point x="-43" y="642"/>
      <point x="4" y="688"/>
      <point x="89" y="688" type="curve" smooth="yes"/>
      <point x="176" y="688"/>
      <point x="224" y="642"/>
      <point x="224" y="587" type="curve" smooth="yes"/>
      <point x="224" y="530"/>
      <point x="176" y="483"/>
    </contour>
  </outline>
</glyph>
<glyph name="tilde.cap" format="2">
  <advance width="565"/>
  <outline>
    <contour>
      <point x="357" y="622" type="curve" smooth="yes"/>
      <point x="357" y="559"/>
      <point x="313" y="502"/>
      <point x="234" y="502" type="curve" smooth="yes"/>
      <point x="137" y="502"/>
      <point x="136" y="577"/>
      <point x="87" y="577" type="curve" smooth="yes"/>
      <point x="64" y="577"/>
      <point x="56" y="566"/>
      <point x="56" y="547" type="curve" smooth="yes"/>
      <point x="56" y="480"/>
      <point x="-34" y="480"/>
      <point x="-34" y="547" type="curve" smooth="yes"/>
      <point x="-34" y="610"/>
      <point x="10" y="667"/>
      <point x="87" y="667" type="curve" smooth="yes"/>
      <point x="183" y="667"/>
      <point x="185" y="592"/>
      <point x="234" y="592" type="curve" smooth="yes"/>
      <point x="257" y="592"/>
      <point x="267" y="603"/>
      <point x="267" y="622" type="curve" smooth="yes"/>
      <point x="267" y="690"/>
      <point x="357" y="690"/>
    </contour>
  </outline>
</glyph>
